<?xml version="1.0" encoding="UTF-8"?>
<svg id="uuid-af905ec0-e87c-46ae-9219-c0fe64c5152e" data-name="Layer 2" xmlns="http://www.w3.org/2000/svg" viewBox="0 0 741.26 623.65">
  <defs>
    <style>
      .uuid-4c529b0e-3457-43b0-81cc-7bc54ecf92f5 {
        fill: #050505;
      }

      .uuid-8968aab7-6671-4673-b918-ea18918b767f {
        fill: #edeeee;
      }

      .uuid-81ff6aab-c066-4586-83d0-573a539ddaaa {
        fill: #1c1c1c;
      }

      .uuid-769fd148-4c0a-4774-ae7f-739c0db3ff85 {
        fill: #fafafa;
      }

      .uuid-23dca293-ddaf-4064-9279-a605c6d1d587 {
        fill: #0a0a0a;
      }
    </style>
  </defs>
  <g id="uuid-692b3325-3544-4738-bb74-d57badbf81bd" data-name="Layer 1">
    <g>
      <path class="uuid-23dca293-ddaf-4064-9279-a605c6d1d587" d="M490.34,51.64c2.4,2.54,9.97,12.63,11.82,13.69,2.37,1.35,4.74.74,7.29,1.71,5.92,2.25,11.98,8.5,13.03,14.96.46,2.8-.58,7.22-.19,8.3,2.59,7.24,19.51,26.79,24.85,35.05,11.81,18.27,23.75,41.13,9.03,61.85-14.13,19.89-60.21,23.21-82.9,24.1-21.85.86-43.8-.51-65.55-2.05l2,22.01c2.4.09,4.92-.33,7.3.21,4.72,1.06,12.44,12.54,12.65,17.37.22,5.12-6.85,14.76-11.87,15.98-1.72.42-6.96.13-7.09,1-.55,20.74.35,41.38,4.18,61.77,10.01,53.36,47.69,121.81-36.79,131.53-29.33,3.38-86.49,2.78-97.65-31.09s20.07-92.94,27.81-129.75c1.19-5.66,7.36-41.63,5.35-43.92-.43-.49-8.22-2.16-11.42-6.08-1.01-1.25-5.31-10.36-5.35-11.48s1.09-5.28,1.64-6.32c.63-1.19,3.19-4.73,4.35-6.6,1.53-2.45,8.7-5.31,11.48-5.63,2.25-.26,4.8,1.06,5.82.83,2.87-.64,5.36-14.06,7.58-16.83-23.25-1.73-46.5-3.82-69.2-9.3-18.39-4.44-59.36-15.65-71.3-29.7-18.53-21.78,1.98-48.41,18.5-63.52,1.94-1.78,12.08-8.83,12.48-9.52,2.38-4.05.35-8.63,6.59-13.41,6.58-5.05,12.98-3.07,18.31-5.69,3.3-1.63,29.76-21.23,32.16-23.84,1.7-1.85,1.88-4.33,3.46-6.54,6.12-8.49,14.75-7.98,22.72-11.28,3.32-1.38,7.93-5.5,11.62-7.38,71.67-36.51,122.42-28.5,177.29,29.55ZM487.73,200.26c.99-.11,2.76,1.09,4.37.89,43.9-5.29,80.88-17.11,50.05-67.82-2.83-4.65-24.57-37.72-26.63-38.86-1.23-.68-4.78.01-7.52-.99-3.85-1.42-13.15-10.91-14.06-14.93-.74-3.27.72-9.06.24-10.34-.3-.79-9.69-10.62-11.4-12.47C433.43,2.85,379.45-4.67,316.05,30.09c-2.16,1.18-9.46,6.86-10.05,7.02-2.18.61-3.91-.68-5.65-.54-2.13.17-14.13,5.87-14.52,7.34-.3,1.15.83,2.66.65,3.73-.22,1.22-16.34,14.09-18.84,16.04-9.17,7.14-17.32,10.68-24.05,19.93-5.41,7.44-13.2,8.45-20.21,12.81-7.39,4.59-21.75,18.99-26.69,26.31-7.51,11.12-11.09,23.31-1.47,34.52,1.73-8.2,9.7-12.23,16.82-15.18,46.72-19.34,131.69-10.34,182.04-3.68,34.09,4.5,75.96,10.63,108.63,20.37,8.04,2.39,37.47,13.3,39,22.04.26,1.46.13,5.14-1.52,5.46-1.05.2-5.42-4.42-9.12-4.67-7.75-.53-17.08,2.76-25.37.67-3.61-1.72-3.2,0-4,0-12.34-.15-26.07-7.15-38-10l-31-13.99c5.86,6.78,15.44,9.11,22,14.99-.6-.13-1.41.14-2,0-1.43-.34-2.74-.13-4.7-.78-6.54-2.15-12.05-7.47-18.3-10.22-1,1,6.86,8.74,7.95,9.54,1.86,1.35,3.4,1.52,5.04,2.46.41,1.85,2.04,4.83,0,6-4.98-3.98-14.38-13.36-19.27-16.24-.81-.48-2.94-1.7-2.73.23,2.75.2,3.31,3.91,4.99,6.01l-1,2c-3.26-4.14-5.72-7.06-8.74-11.73-.89-1.38-2.09-2.15-3.25-1.26-.88.68,10.04,17.29,11.49,19,7.14,8.45,17.1,13.15,24.51,20.98-9.79-2.05-16.31-11.67-24.51-16.97.62,7.09,7.02,10.96,10.49,16.49-13.76-6.28-15.22-23.8-24.48-34.51-.07,6.74,3.4,15.94,6.51,21.99l-1,2c-.29-.41-1.71-.91-2.44-2.01-1.91-2.9-2.55-7.01-5.55-8.99l3.99,13c-.54-.15-1.37.1-2,0-.71-1.47-1.48-4.58-2.99-4.99l-.02,16c3.02-.53,7.61,1.73,8.5-2.02.83-.1.44,2.29,2.12,2.89.89.32,11.56.85,13.91.97s4.96-.05,8,.09c6.57.3,10.49-1.81,13.96-1.97.66-.03-.05,1.86,1.93,2.13,5.46.73,12.05-.72,17.57-1.09.33-.02.67.02,1,0,5.59-.36,9.62-1.54,14-2ZM515.73,88.27c4.03-4.03-10.49-20.01-17-16,.9,4.14,3.16,8.37,6.1,11.39,1.85,1.89,8.65,6.85,10.9,4.61ZM238.72,78.27c-1.51-1.67-15.94,6.86-12.99,9.99,1.03,1.09,10.44-5.27,11.75-6.7.73-.8,2.48-1.91,1.24-3.29ZM295.73,142.26h-22.5c-.17,0-1.57-1.35-1.5-1.99l22.99-1.02c.23-1.74-2.27-.94-3.48-.99-12.01-.49-23.93,1.41-35.88,2.13l-17.62,3.86c16.41,1.99,32.92.86,49.37-.11l8.62-1.88ZM351.73,142.26c-1.33-.05-2.68.02-4,0-2.26,26.36-6.48,53.03-17.99,76.99,2.99.86,6.27.92,9.08,2.43,2.24,1.21,3.7,4.24,4.5,4.42.96.22,2.66-.92,3.96-.88,5.23.14,4.96-.45,9.01-.91,10.66-1.22,10.18,3.72,15.18,4.75,2.07.43,6.13-1.35,9.72-.75,2.63.44,4.37,2.88,6.04,2.92,1.55.03,3.57-1.86,6.02-2.04,2.92-.22,5.58,1.28,8.48,1.07-4.42-27.08-4.04-55.04,1.01-81.97l-5-1.02c-.42,10.13-2.08,21.45-4.02,31.48-.28,1.46.01,3.1-1.98,3.51-.2-11.9,1.17-23.76,4.99-34.99l-12.01-1.01c-.85.85,1.84,10.57-2.99,10l.99-10.99c-8.88-1.36-17.55-1.4-26.46-2.09-1.07-.08-2.03-.87-2.54-.92-.66-.06-1.34.02-2,0ZM315.73,149.26c.38-.15,9.82-4.06,5.58-3.94-12.43,4.28-25.24,6.86-38.22,8.8-20.29,3.03-47.7,6.6-67.9,5.18-2.8-.2-8.93-.55-10.46-3.03,15.6,1.36,29.98.54,45.49-1.02,22.02-2.21,43.99-6.03,65.5-11,.25-1.71-2.37-1.06-3.48-.98-11.67.9-23.39,3.96-35.03,4.98-13.82,1.21-29,1.12-42.68-1.29-1.01-.18-2-1.53-3.34-1.68-5.19-.57-33.4,8.24-33.27,14.48,3.76,5.15,23.84,14.43,29.12,13.51.69-.12.59-1.73,2.05-2.19,4.47-1.41,10.01-1.74,14.64-2.83.63.28,1.54.16,2,1-5.63,1.4-11.34,2.7-17,4.01,3.06,3.46,9.67,4.83,14.23,6.26,28.35,8.88,58,12.69,87.66,13.63l4.61-17.87c-2.33,2.08-4.67,5.25-5.95,8.06-.62,1.36-.43,3.78-.57,3.93-.25.27-3.93-1.55-7,.99-.28.23-.26,3.05-1.99,3-.92-3.94,1.67-2.65,1.99-3,.64-.7.86-5.43,1.51-7,1.24-3,3.41-5.74,4-8.98-5.47,6.88-11.6,13.15-19.01,17.97-2.18-1.87.68-1.86,1.1-2.35,2.78-3.24,26.52-27.24,23.4-30.64-1.88-.43-2.37,1.07-3.5,1.99-9.43,7.76-15.86,18.21-27.5,24l-1-2c2.62-1.41,8.25-6.16,9.51-8.98-3.06,2.7-7.48,5-11.13,6.88-1.61.83-3.73.76-4.38,1.1,6.93-7.22,11.01-6.86,18.52-10.98,5.57-3.05,11.41-11.36,16.46-15.53-11.2,3.42-16.4,14.43-28.98,15.51-.66.06-1.35-.07-2,0,4.77-5.27,12.4-6.4,17-12,2.49-1.15,5.02-.29,5.03-4.48,0-2.99-4.64-.45-5.03-3.52ZM431.72,155.27l-2.99.49c.91,1.06,1.52,1.82,2.99,1.5v-1.99ZM502.72,167.28l-51.99-11,22.96,7.52c9.32,1.31,18.5,3.56,27.74,5.28,1.98.37,1.8-1.29,1.29-1.8ZM528.72,180.26c.35-1.68-.45-2.04-1.64-2.85-7.48-5.15-30.19-5.56-40.57-7.43-15.3-2.77-29.71-8.16-44.79-11.7l13.47,7.02c23.46,9,48.06,16.17,73.52,14.97ZM338.73,159.27c-2.56-.59-1.75.69-2.59,1.87-1.64,2.32-11.19,21.17-10.41,22.11,1.56,1.88,2.14-1.4,2.48-1.97,4.2-7.02,7.58-14.38,10.52-22.01ZM425.73,161.25l2.97.52c-1.02-1.53-3.15-2.49-2.97-.52ZM313.73,238.26c2.21.23,6.21.77,8.23,1.27,3.92.97,7.97,5.07,13.06,3.54,1.67-.5,2.65-3.22,4.2-2.81l2.19,4.03c4.61,1.67,31.61,3.09,32.88,4.91.83,1.18.02,3.88,1.34,5.65,2.45,3.26,8.58,2.49,10.1-1.58-1.38.1-2.66-.11-3.98-.52-1.22-.38-4.78-1.22-5.01-2.48,3.06-.27,6.46.39,9.46-.04,1.61-.23,2.65-1.95,4.01-2,.88-.03.59,1.95,1.47,2.53,1.35.88,16.59.89,18.05,0,1.12-.69,1.29-3.27,2.99-3.5l1.5,3.99,3.51-3.99c.05,2.62-.77,3.79,2,1.99-.92,4.95,3.22,3.54,3.01-.39-.33-6.27-6.53-4.13-7.01-4.59s1.25-5.87-1.6-6.9c-3.72-1.34-3.3,1.55-3.54,1.7-1.55,1.03-3.65-2.71-5.79-3.37s-13.84-2.03-14.92-.3c-1.56,2.51,2.7,6.92-3.63,5.89-.84-.14-.42-2.75-1.03-3.98-2.51-5.06-10.67-4.96-14.46-1.51-1.64,1.49.09,4.17-3.01,3.45,2.54-4.85-3.77-10-8.49-10.04-2.6-.02-4.81,1.85-7.12,2.02s-4.12-1.24-6.41-.58c-3.57,1.03-3.47,5.37-6.98,5.6,2.71-10.33-10.7-14.87-18.37-10.87-2.21,1.15-3.67,4.82-4.32,4.95-3.89.76-8.51-4.78-10.86,3.9-2.01,7.43,2.01,3.79,4.25,3.27,1.18-.27,1.85.71,2.29.75-2.13,5.01,12.05,11.31,7.87,5.13-.42-.62-6.46-1.46-5.87-5.13ZM314.72,246.28l-6.98-5.01c.02,3.38.46,4.88,3.68,5.77.93.26,3.58.99,3.3-.75ZM337.72,245.27l-12.99-1c1.34,5.89,11.95,7.66,12.99,1ZM354.72,248.27c-3.82,1.43-7.2-.4-10.99-1,.64,6.04,9.78,7.06,10.99,1ZM369.73,251.27l-9.99-1c1.4,6.15,7.26,6.7,9.99,1ZM375.73,264.26c-.01-2.02-3.64-3.89-5.51-3.95-1.53-.05-3.23,1.69-5.08,1.95-6.23.87-8.46-4.96-9.01-5.01-1.54-.15-5.29,1.86-7.78,1.69-4.72-.33-7.78-4.67-8.26-4.73-4-.45-11.02,5.58-16.35-.95-.18,3.77.29,7.61-.13,11.38-2.2,19.43-7.07,44.65-12.61,63.39-8.38,28.33-30.5,67.35-20.55,97.02.53,1.57,7.05,14.65,9.28,12.21-2.15-6.86-8.14-18.02-5.82-25.33,2.57-8.06,3.88,5.83,4.07,6.58,2.57,9.92,8.35,15.39,12.84,24.16.63,1.74,8.32,3.11,8.9,2.59-2.1-4.77-5.84-8.99-7.47-14.02-3.1-9.57-3.36-25.4-1.25-35.2.56-2.61,1.02-6.56,3.71-7.78-.87,3.91.9,9.35.74,12.72-.07,1.53-1.63,2.57-1.68,3.83-.56,13.23,1.41,27.25,10.44,37.47,5.46,6.18,13.05,7.26,21.14,7.86,4.43.33,13.57.45,17.83.17,1.49-.09,7.95-.89,8.87-1.21.49-.17,5.74-6.42,6.5-7.5,9.98-14.14,7.89-27.45,11.39-42.61,1.85-8.02,4.02-1.07,3.77,4.77-.52,11.89-2.85,26.92-8.63,37.37-1.51,2.74-7.24,7.35-1.98,7.03s7.79-2.26,11.63-5.38c15.85-12.88,19.69-34.12,16.99-53.51.66.03,1.33-.02,2,0,2.28,13.28,1.97,30.88-4.56,42.94l-9.44,11.05c5.39.89,10.84-4.58,13.97-8.51,20.31-25.54-3.95-78.09-8.84-107.11-2.88-17.11-4.58-40.48-4.03-57.75.13-3.95,3.1-8.89-3.96-3.97-1.82,12.64-1.49,25.2-2.14,37.87-.4,7.86-2.65,1.91-2.99-2.02-.57-6.47.28-18.25,1.11-24.87.47-3.77,1.62-8.02,2.88-11.61-4.03,1.33-6.48-2.69-9.58-3.01s-7.25,1.7-10.42,2ZM405.72,253.27c-2.24-.08-4.25,1.09-6.49,1.09-2.01,0-8.98-2.55-8.52.42,1.22,7.86,17.83,1.04,15.01-1.5ZM409.72,259.25c1.37,1.29,7.65.82,7-2.48-.82-4.14-8.82.77-7,2.48ZM303.72,439.27c-1.4-.72-2.67.63-1.99.98,1.4.72,2.67-.63,1.99-.98Z"/>
      <path class="uuid-23dca293-ddaf-4064-9279-a605c6d1d587" d="M293.73,182.26c-.33.02-.67-.02-1,0,.27-1.12,1.45-1.42,2-2-.1.05-.33,1.67-1,2Z"/>
      <path class="uuid-4c529b0e-3457-43b0-81cc-7bc54ecf92f5" d="M180.73,518.76c1.37-6.36,12.54-6.65,13.91,3.09-2.02,29.75,2.99,63.72.15,92.97-.86,8.82-11.55,8.8-15.3,2.18l-29.76-63.74v64.5c0,3.87-12.48,6.86-13.94-2.06-.49-25.65.43-51.34-.02-76.98-.1-5.64-3.38-15.84,1.42-20.5,3.02-2.94,9.69-2.8,12.56.52,3.37,3.9,9.51,19.16,12.16,24.84,5.83,12.5,10.62,26.16,16.54,38.46.57,1.19.54,2.96,2.28,3.22v-66.5Z"/>
      <path class="uuid-4c529b0e-3457-43b0-81cc-7bc54ecf92f5" d="M446.73,617.76c-.77,4.58-12.68,7.91-13.88-2.1-3.49-29.07,2.4-64.23-.18-93.96-.79-6.77,9.39-7.24,14.51-7.48,37.89-1.78,53.75,30.6,23.27,54.27l-13.72,6.76c.75-.08,1.47.19,1.96.76,8.41,9.53,18.44,21.61,26.01,31.78,2.84,3.82,7.19,10.76.79,13.73-7.15,3.32-10.11-3.79-14.73-7.79l-24.03-30.47c-1.24,10.4,1.67,24.59,0,34.5ZM446.73,563.26c12.74-.38,31.98-14.49,23.85-28.35-4.41-7.52-15.91-9.98-23.85-7.65v36Z"/>
      <path class="uuid-4c529b0e-3457-43b0-81cc-7bc54ecf92f5" d="M698.73,618.76c-.76,2.64-5.38,3.59-8.01,3.05-8.24-1.72-4.68-11.59-4.93-17.05-1.08-24.61-3.32-56.85-1.11-81.05.82-9,7.74-9.05,15.51-9.49,48.83-2.77,50.81,47.34,9.55,60.54l29.45,35.55c5.84,7.3-1.64,15.3-9.41,10.4-7.18-8.12-14.26-16.5-21.05-24.94-2.79-3.47-5.3-10.29-10-11.5v34.5ZM698.73,563.26c31.96-1.92,38.43-41.84,0-36v36Z"/>
      <path class="uuid-4c529b0e-3457-43b0-81cc-7bc54ecf92f5" d="M112.47,514.42c5.92-1.04,8.68,3.1,9.26,8.34,1.81,16.29,1.4,57.72-1.46,73.53-2.18,12-7.75,24.57-21.28,26.72-49.66,7.91-31.97-73.16-35.05-101.05,2.67-7.21,10.63-9.55,14.34-1.76,1.65,19.64-.65,40.01.41,59.59.42,7.79,1.25,20.68,6.53,26.47,9.1,10,17.62,1.65,20.24-8.79,4-15.96,2.43-44.44,2.31-61.68-.04-5.46-4.27-19.81,4.7-21.39Z"/>
      <path class="uuid-4c529b0e-3457-43b0-81cc-7bc54ecf92f5" d="M374.07,613.92c-15.48-17.45-12.79-65.05-3.22-85.03s35.44-19.06,44.36,1.4,8.58,71.57-8.96,87c-9.17,8.06-24.46,5.33-32.17-3.36ZM390.45,527.46c-3.04.68-4.47,3.67-5.89,6.14-8.83,15.42-9.11,50.24-2.01,66.34,2.9,6.59,7.76,12.53,14.59,6.24,11.73-10.8,11.22-54.43,5.76-68.59-2.24-5.81-5.15-11.77-12.45-10.13Z"/>
      <path class="uuid-4c529b0e-3457-43b0-81cc-7bc54ecf92f5" d="M250.73,577.26c-5.14-.56-12.4,1.6-16.52-1.97-4.89-4.25-1.02-10.36,5-11.05s20.95-1.42,24.41,4.63c2.56,4.47,1.04,25.62-.36,31.42-6.94,28.72-43.03,31.44-52.81,3.75-8.25-23.36-6.92-101.92,34.3-88.3,10.72,3.54,21.29,22.9,9.25,25.34-11.05,2.24-5.57-12.18-15.02-13.64-14.1-2.18-17.69,27.98-18.23,37.33-.67,11.39-.12,48.82,18.25,45.28,6.2-1.2,11.74-12.63,11.74-18.29v-14.5Z"/>
      <path class="uuid-4c529b0e-3457-43b0-81cc-7bc54ecf92f5" d="M601.73,577.26c-6.67.39-20.51,1.26-17.58-9.09,1.72-6.08,25.32-5.34,29.61-.44,2.93,3.35,2.38,19.01,1.96,24.01-1.73,20.64-18.34,39.14-40.05,29.08-24.89-11.53-20.37-72.38-9.45-92.58,8.21-15.19,28.34-20.08,39.93-5.89,3.37,4.13,8.15,15.5.9,17.71-12.8,3.9-7.27-11.18-15.85-12.79-7.54-1.42-11.42,5.08-13.94,11.01-6.44,15.17-7.76,47.07-1.3,62.26,5.41,12.72,18.51,12.92,23.48-.08.39-1.03,2.3-8.17,2.3-8.7v-14.5Z"/>
      <path class="uuid-4c529b0e-3457-43b0-81cc-7bc54ecf92f5" d="M532.72,585.26c-6.52,1.63-13.24.75-19.9,1.11-1.52,1.3-4.17,28.66-7.21,33.29-3.09,4.72-11.95,3.26-12.86-2.97l8.22-44.67c3.93-14.17,5.93-28.85,10.03-42.97.79-2.71,2.18-8.68,3.28-10.72,2.62-4.87,10.66-5.61,14.45-1.58,4.17,4.43,10.83,34.48,12.69,42.31,3.31,13.97,10.25,39.6,11.19,52.85.44,6.11-2.22,11.23-9.18,9.17s-9.08-29.11-10.72-35.81ZM514.73,573.26h15l-2.67-15.83-4.82-16.18-7.51,32.01Z"/>
      <path class="uuid-4c529b0e-3457-43b0-81cc-7bc54ecf92f5" d="M640.73,528.26v31h19.5c5.69,0,5.69,13,0,13h-19.5v35h31.5c.22,0,3.4,2.45,3.55,2.69,2.58,4.24.26,9.45-4.61,10.25-6.08.99-32.73.95-38.88,0-4.41-.69-5.15-3.42-5.56-7.44-2.89-27.95,2.19-60.59-.05-89.04-.18-4.23,2.36-7.73,6.61-8.39,5.03-.79,31.12-.86,35.73.16,8.55,1.88,4.28,12.79-1.79,12.79h-26.5Z"/>
      <path class="uuid-4c529b0e-3457-43b0-81cc-7bc54ecf92f5" d="M15.73,529.26v31h23.5c4.16,0,5.52,13-2,13H15.73l-.21,44.29c-1.12,4.11-5.71,7.06-9.76,5.2-6.33-2.9-3.68-15.82-3.98-22.03-1.14-23.52-2.67-51.56-1.08-75,.5-7.38,1.7-9.6,9.54-10.46s28.81-.88,36.74.27c5.11.74,10.48,2.72,8.56,9.03-.27.9-3.98,4.71-4.3,4.71H15.73Z"/>
      <path class="uuid-4c529b0e-3457-43b0-81cc-7bc54ecf92f5" d="M320.73,529.26v31c3.58-2.04,6.61.1,9.5,0,4.79-.15,8.53-2.59,13.86.13,7.07,3.6,2.34,12.87-1.87,12.87h-21.5l-.45,45.05c-1.84,6.04-12.16,5.59-13.33-.76l.28-99.29c1.52-2.05,3.54-2.74,5.98-3.02,6.65-.78,36.03-1.03,41.81.24,8.5,1.87,4.65,13.79-1.79,13.79h-32.5Z"/>
      <path class="uuid-4c529b0e-3457-43b0-81cc-7bc54ecf92f5" d="M289.44,620.96c-5.45,4.39-13.05-.38-12.71-7.2,2.2-29.06-2.95-62.45,0-91,1.14-11,13.68-10.52,15,1,3.22,28.22-2.46,62.22.07,91.06.12,1.79-1.01,5.05-2.36,6.14Z"/>
      <path class="uuid-769fd148-4c0a-4774-ae7f-739c0db3ff85" d="M505.73,182.26c8.29,2.08,17.62-1.2,25.37-.67,3.7.25,8.07,4.87,9.12,4.67,1.64-.32,1.77-4,1.52-5.46-1.53-8.74-30.96-19.64-39-22.04-32.68-9.74-74.54-15.86-108.63-20.37-50.35-6.65-135.33-15.66-182.04,3.68-7.12,2.95-15.09,6.98-16.82,15.18-9.62-11.21-6.05-23.41,1.47-34.52,4.95-7.32,19.31-21.72,26.69-26.31s14.8-5.37,20.21-12.81c6.72-9.25,14.88-12.79,24.05-19.93,2.5-1.94,18.62-14.82,18.84-16.04.19-1.06-.94-2.57-.65-3.73.38-1.47,12.38-7.17,14.52-7.34,1.74-.14,3.47,1.14,5.65.54.59-.16,7.89-5.84,10.05-7.02,63.4-34.76,117.37-27.24,166.72,25.65,1.72,1.84,11.11,11.67,11.4,12.47.48,1.28-.98,7.08-.24,10.34.91,4.02,10.21,13.51,14.06,14.93,2.74,1.01,6.29.31,7.52.99,2.06,1.15,23.8,34.21,26.63,38.86,30.83,50.7-6.15,62.53-50.05,67.82-1.6.19-3.37-1-4.37-.89v-1c.1-1.52-.51-2.03-1.6-2.87-4.31-3.34-14.36-6.55-19.6-9.22-1.23-.63-2.64-1.31-3.8-1.91l1-2c.34.8,4.26.16,5.78.63,8.69,2.64,17.28,9.43,27.16,11.94,1.19.3,5.3.67,3.06-1.55-.58-.58-12.4-5.14-15.02-6.49-6.96-3.59-17.74-10.97-23.98-13.52,2.37.04,3.47.67,3-2,11.93,2.85,25.66,9.85,38,10,7.49,6.25,17.41,6.98,26.99,6.99-.31-4.84-8.16-2.62-12.24-3.25s-7.16-2.03-10.76-3.74ZM375.48,24.52c-7.27,1.05-15.84,5.92-15.85,14.23-.02,17.08,40.1,16.99,40.18.01.06-12.38-14.27-15.7-24.32-14.25ZM339.72,28.27c-.89-.96-14.41,6.05-10.99,10.99l9.34-7.15c1.56-.34,2.24-3.21,1.65-3.84ZM429.99,33.52c-.9.96-1.19,2.93-1.28,4.25-1.16,17.45,33.66,25.13,29.61,7.44-2.32-10.13-13.42-15.24-23.02-13.87-1.14.16-4.62,1.46-5.3,2.19ZM315.44,42.54c-7.23-7.25-27.81,3.65-30.25,12.69-3.86,14.32,15.21,10.95,23.07,6.06,5.62-3.49,13.27-12.64,7.18-18.76ZM363.72,65.27c-.65-.65-5.54.03-4.99,2.48.87,3.83,7.28-.2,4.99-2.48ZM326.48,73.53c-25.11,3.6-22.74,32.15,4.27,25.26,17.22-4.39,20.48-28.81-4.27-25.26ZM454.35,80.66c-17.82-14.34-42.27-1.03-25.16,16.63,10.29,10.63,38.54,12.98,31.77-7.77-.82-2.51-4.51-7.17-6.61-8.87ZM275.72,76.27c-6.66-1.42-8.59,8.57-2.07,3.42,1.19-.94,2.43-1.6,2.07-3.42ZM482.1,80.88c-1.12-1.06-1.06-3.14-3.37-2.62-2.14,10.31,13.05,11.76,3.37,2.62ZM494.72,102.26c1.56-2.53-5.28-12.76-6.99-10.99-.12,1.52,5.46,12.8,6.99,10.99ZM253.48,94.53c-20.98,2.96-21.62,31.4,2.24,20.23,11.6-5.43,15.33-22.71-2.24-20.23ZM306.72,114.27c-1.13-1.12-9.85,1.06-7,3.99,1.53,1.57,9.81-1.21,7-3.99ZM504.45,115.48c-17.21,1.69-1.92,31.45,14.02,25.02,11.67-4.71-1.29-26.27-14.02-25.02ZM218.72,120.27c-6.91-1.45-8.16,8.16-2,4.49.84-.5,2.58-3.97,2-4.49ZM472.72,125.26h-2.99v6.01h2.99v-6.01ZM537.68,142.29c-.2-.16-3.01-.39-2.97.49,1.75,8.6,5.53,14.1,6.03,22.98.09,1.54-.98,3.96,1.47,3.49,1.97-1.28,1.37-2.35,1.28-4.17-.16-2.94-4.45-21.68-5.8-22.8ZM511.73,193.25c-1.69-2.53-6.34-3.34-9.24-4.25-5.21-1.65-11.38-3.36-16.76-3.73l8.21,4.28,17.79,3.7Z"/>
      <path class="uuid-769fd148-4c0a-4774-ae7f-739c0db3ff85" d="M411.73,389.26c2.7,19.39-1.13,40.63-16.99,53.51-3.84,3.12-6.4,5.06-11.63,5.38s.47-4.3,1.98-7.03c5.77-10.45,8.1-25.48,8.63-37.37.26-5.84-1.91-12.8-3.77-4.77-3.5,15.16-1.41,28.47-11.39,42.61-.76,1.08-6.01,7.33-6.5,7.5-.93.32-7.38,1.12-8.87,1.21-4.26.27-13.4.15-17.83-.17-8.09-.6-15.68-1.68-21.14-7.86-9.03-10.22-11.01-24.24-10.44-37.47.05-1.26,1.61-2.3,1.68-3.83.16-3.37-1.61-8.81-.74-12.72-2.69,1.21-3.15,5.17-3.71,7.78-2.1,9.8-1.85,25.63,1.25,35.2,1.63,5.03,5.36,9.25,7.47,14.02-.58.52-8.27-.85-8.9-2.59-4.49-8.76-10.27-14.24-12.84-24.16-.19-.75-1.51-14.64-4.07-6.58-2.33,7.3,3.67,18.46,5.82,25.33-2.23,2.44-8.75-10.64-9.28-12.21-9.96-29.67,12.17-68.69,20.55-97.02,5.54-18.74,10.42-43.96,12.61-63.39.43-3.77-.05-7.61.13-11.38,5.33,6.52,12.36.5,16.35.95.49.06,3.55,4.4,8.26,4.73,2.48.17,6.24-1.84,7.78-1.69.55.05,2.78,5.88,9.01,5.01,1.85-.26,3.55-2,5.08-1.95,1.87.06,5.49,1.94,5.51,3.95-.73.07-2.01-.85-2.71-.81-4.11.23-1.61,4.65,1.2,4.81,1.58-1.07,1.53-2.3,1.52-4,3.17-.3,7.33-2.31,10.42-2s5.55,4.34,9.58,3.01c-1.26,3.59-2.4,7.84-2.88,11.61-.83,6.62-1.68,18.4-1.11,24.87.35,3.93,2.59,9.87,2.99,2.02.65-12.67.32-25.23,2.14-37.87,7.06-4.91,4.09.02,3.96,3.97-.55,17.28,1.15,40.65,4.03,57.75,4.89,29.03,29.15,81.57,8.84,107.11-3.13,3.94-8.59,9.4-13.97,8.51l9.44-11.05c6.53-12.06,6.84-29.66,4.56-42.94-1.41-8.2-4.86-20.55-7.97-28.53-1.15-2.96-2.62-7.38-5.02-9.47l9.03,37.27c.4.97,1.18.7,1.96.73ZM330.73,257.26h-3c.37,6.1.36,11.92,0,18.01h3v-18.01ZM394.72,309.26c-3.11-.9-2.11,3.49-1.98,5.49.45,7.14,2.54,17.72,4.15,24.85.27,1.18.35,5.56,2.32,4.65s1.26-2.45,1.11-4c-.98-10.06-4.82-20.81-5.6-30.99ZM327.72,331.27c-3.64-3.59-6.06,9.93-4.99,11.99,2.53,3.04,5.52-11.47,4.99-11.99ZM380.73,364.25c.59.81,6.46,1.92,5.99-1.47-1.64-3.36-7.55-.65-5.99,1.47ZM402.73,383.76c.65,4.73-.47,10.62,0,15.5h2v-14.5c0-1.06-1.54-3.37-3-2.49-.48.4.96,1.2,1,1.49ZM363.38,441.92c-5.07,2.05-4.56,6.97.92,4.41s4.26-4.9,5.94-9.06c2.15-5.29,5.41-10.09,4.47-16.01l-11.33,20.66ZM329.71,430.27c-1.15-1.15-2-.05-2.02,1.52-.09,8.06,9.47,14.2,17.03,10.47l-8.95-3.54c-3.29-.9-5.3-7.68-6.06-8.45Z"/>
      <path class="uuid-769fd148-4c0a-4774-ae7f-739c0db3ff85" d="M351.73,142.26c.83,3.54-2.17,18.91,2.49,19.01,2.44-7.36-1.5-11.8,8.09-12.92,5.67-.66,10.89,2.02,15.43-.59-8.21-.77-14.2-3.77-22,.5v-4s-2.01-1.99-2.01-1.99c.51.05,1.47.84,2.54.92,8.9.69,17.57.73,26.46,2.09l-.99,10.99c4.83.57,2.14-9.15,2.99-10l12.01,1.01c-3.83,11.23-5.19,23.09-4.99,34.99,1.99-.41,1.7-2.06,1.98-3.51,1.94-10.04,3.6-21.35,4.02-31.48l5,1.02c-5.04,26.92-5.43,54.89-1.01,81.97-2.9.21-5.56-1.29-8.48-1.07-2.45.18-4.47,2.08-6.02,2.04-1.67-.04-3.41-2.48-6.04-2.92-3.59-.6-7.64,1.18-9.72.75-5-1.03-4.52-5.97-15.18-4.75-4.05.46-3.78,1.05-9.01.91-1.31-.03-3,1.1-3.96.88-.81-.18-2.26-3.22-4.5-4.42-2.81-1.52-6.08-1.58-9.08-2.43,11.51-23.96,15.73-50.64,17.99-76.99,1.33.02,2.67-.04,4,0ZM390.73,197.26v28.5c0,1.38,5.08,2.29,5.01.99-2.03-9.15-1.92-18.76-3.01-28.01-.18-1.5-.82-3.05-2.01-1.48ZM345.72,200.27c-2.58-.46-1.79.43-2.44,2-.75,1.82-5.12,14.45-4.55,14.99,1.21-.15,2.24.69,3.01-.67,1.73-3.06,3.98-12.62,3.98-16.32Z"/>
      <path class="uuid-769fd148-4c0a-4774-ae7f-739c0db3ff85" d="M311.73,238.26c-.44-.04-1.11-1.02-2.29-.75-2.24.52-6.26,4.15-4.25-3.27,2.35-8.68,6.96-3.14,10.86-3.9.65-.13,2.1-3.79,4.32-4.95,7.67-4,21.09.54,18.37,10.87,3.51-.23,3.41-4.57,6.98-5.6,2.28-.66,4.13.75,6.41.58s4.53-2.04,7.12-2.02c4.72.03,11.03,5.19,8.49,10.04,3.1.72,1.38-1.96,3.01-3.45,3.79-3.46,11.95-3.55,14.46,1.51.61,1.24.2,3.85,1.03,3.98,6.34,1.03,2.07-3.38,3.63-5.89,1.08-1.73,12.75-.37,14.92.3s4.25,4.4,5.79,3.37c.23-.16-.19-3.05,3.54-1.7,2.85,1.03,1.11,6.42,1.6,6.9s6.68-1.68,7.01,4.59c.21,3.93-3.93,5.34-3.01.39-2.77,1.8-1.94.63-2-1.99l-3.51,3.99-1.5-3.99c-1.7.23-1.87,2.81-2.99,3.5-1.46.9-16.7.88-18.05,0-.89-.58-.59-2.56-1.47-2.53-1.36.04-2.41,1.76-4.01,2-3,.44-6.4-.23-9.46.04.23,1.25,3.8,2.1,5.01,2.48,1.32.41,2.6.62,3.98.52-1.52,4.08-7.65,4.84-10.1,1.58-1.33-1.77-.52-4.47-1.34-5.65-1.27-1.82-28.28-3.25-32.88-4.91l-2.19-4.03c-1.55-.41-2.53,2.31-4.2,2.81-5.09,1.53-9.14-2.57-13.06-3.54-2.02-.5-6.02-1.04-8.23-1.27-.65-.07-1.34.06-2,0Z"/>
      <path class="uuid-8968aab7-6671-4673-b918-ea18918b767f" d="M300.73,181.26c-3.61,1.95-4.91.87-7,1,.67-.33.9-1.95,1-2,.65-.34,2.77-.27,4.38-1.1,3.65-1.88,8.07-4.18,11.13-6.88-1.26,2.82-6.89,7.57-9.51,8.98Z"/>
      <path class="uuid-8968aab7-6671-4673-b918-ea18918b767f" d="M294.73,180.26c-.55.58-1.73.88-2,2-1.98.12-6.51,3.94-7.51,5.98,6.17-2.19,10.53-2,16.51-4.98,11.64-5.79,18.07-16.24,27.5-24,1.13-.93,1.61-2.43,3.5-1.99,3.13,3.4-20.62,27.39-23.4,30.64-.42.49-3.29.48-1.1,2.35,7.41-4.83,13.55-11.1,19.01-17.97-.59,3.24-2.76,5.98-4,8.98-.65,1.57-.87,6.3-1.51,7-.32.35-2.91-.94-1.99,3,1.73.05,1.71-2.77,1.99-3,3.07-2.54,6.74-.72,7-.99.13-.15-.05-2.57.57-3.93,1.28-2.81,3.61-5.98,5.95-8.06l-4.61,17.87c-29.67-.94-59.31-4.75-87.66-13.63-4.56-1.43-11.17-2.8-14.23-6.26,5.66-1.31,11.37-2.61,17-4.01,12.78-3.19,24.46-4.7,37.23-7.27,9.36-1.88,18.44-4.78,27.77-6.72-2.84,2.81-8.01,4.34-11.75,5.74-18.89,7.04-40.06,10.85-60.25,11.26.38,1.82,1.97,1.86,3.46,2.03,22.95,2.56,52.66-7.36,73.54-17.04-4.6,5.6-12.23,6.73-17,12-2.35.25-4.71-.21-7.26.24-10.01,1.75-21.13,8.81-31.73,9.77-.25,1.71,2.37,1.06,3.47.97,2.11-.17,4.59-.83,6.73-1.28,6.8-1.44,21.76-8.25,26.8-7.7-.45,1.05-11.03,7.83-5.5,7.01,4.39-.65,6.59-3.48,8.5-7.01.31-.58,1.07-1.08,1-2,12.58-1.08,17.78-12.09,28.98-15.51-5.05,4.17-10.89,12.48-16.46,15.53-7.51,4.12-11.59,3.76-18.52,10.98ZM286.72,178.27c-1.09-1.09-3.08.9-1.99,1.99s3.08-.9,1.99-1.99ZM278.72,181.27c-.55-.55-5.2,1.44-3.99,1.99h3.99s0-1.99,0-1.99Z"/>
      <path class="uuid-8968aab7-6671-4673-b918-ea18918b767f" d="M243.73,168.26c-4.64,1.09-10.17,1.42-14.64,2.83-1.46.46-1.36,2.07-2.05,2.19-5.28.92-25.36-8.36-29.12-13.51-.13-6.24,28.08-15.05,33.27-14.48,1.34.15,2.33,1.5,3.34,1.68,13.68,2.41,28.86,2.49,42.68,1.29,11.64-1.02,23.36-4.08,35.03-4.98,1.1-.08,3.73-.74,3.48.98-21.51,4.97-43.49,8.8-65.5,11-15.51,1.56-29.89,2.38-45.49,1.02,1.53,2.48,7.65,2.83,10.46,3.03,20.2,1.42,47.61-2.15,67.9-5.18,12.98-1.94,25.79-4.52,38.22-8.8,4.24-.12-5.2,3.79-5.58,3.94-30.26,11.73-64.17,16.47-96.54,16.05-2.37-.03-5.46-2.21-6.46.94,3.6-.58,6.98.85,10.46,1.05,6.02.35,15.54-1.29,20.54.96Z"/>
      <path class="uuid-81ff6aab-c066-4586-83d0-573a539ddaaa" d="M315.73,149.26c.39,3.07,5.04.53,5.03,3.52,0,4.19-2.54,3.33-5.03,4.48-20.88,9.68-50.59,19.59-73.54,17.04-1.5-.17-3.09-.21-3.46-2.03,20.19-.41,41.35-4.22,60.25-11.26,3.74-1.39,8.91-2.93,11.75-5.74-9.33,1.94-18.41,4.84-27.77,6.72-12.77,2.57-24.45,4.08-37.23,7.27-.46-.84-1.37-.72-2-1-5-2.25-14.52-.61-20.54-.96-3.48-.2-6.86-1.64-10.46-1.05.99-3.15,4.08-.97,6.46-.94,32.37.42,66.28-4.31,96.54-16.05ZM315.23,151.26v1c.65-.33.65-.67,0-1Z"/>
      <path class="uuid-8968aab7-6671-4673-b918-ea18918b767f" d="M528.72,180.26c-25.46,1.2-50.06-5.96-73.52-14.97l-13.47-7.02c15.08,3.53,29.49,8.93,44.79,11.7,10.38,1.88,33.09,2.28,40.57,7.43,1.19.82,1.99,1.17,1.64,2.85Z"/>
      <path class="uuid-81ff6aab-c066-4586-83d0-573a539ddaaa" d="M442.73,174.26c6.61,3.76,13.24,7.5,20,11,1.16.6,2.57,1.28,3.8,1.91,5.24,2.67,15.3,5.88,19.6,9.22,1.09.85,1.7,1.36,1.6,2.87l-33.99-13.99c4.59,5.5,12.97,7.88,17.95,12.54,1.52,1.42,2.36,2.12,2.05,4.45-.33.02-.67-.02-1,0-5.17-5.79-12.92-8.69-19.32-13.18-3.83-2.69-7.08-5.93-10.68-8.82,2.04-1.17.41-4.15,0-6Z"/>
      <path class="uuid-8968aab7-6671-4673-b918-ea18918b767f" d="M295.73,142.26l-8.62,1.88c-16.45.98-32.97,2.1-49.37.11l17.62-3.86c11.95-.72,23.88-2.62,35.88-2.13,1.22.05,3.72-.75,3.48.99l-22.99,1.02c-.07.64,1.33,1.99,1.5,1.99h22.5Z"/>
      <path class="uuid-81ff6aab-c066-4586-83d0-573a539ddaaa" d="M454.73,173.26c1.53.34,5.3.71,6,1,6.24,2.55,17.02,9.94,23.98,13.52,2.62,1.35,14.44,5.91,15.02,6.49,2.24,2.22-1.87,1.86-3.06,1.55-9.88-2.51-18.47-9.3-27.16-11.94-1.52-.46-5.44.18-5.78-.63-.2-.48.41-1.88-.2-2.75-1.43-2-10.14-1.98-10.8-7.25.59.14,1.4-.13,2,0Z"/>
      <path class="uuid-8968aab7-6671-4673-b918-ea18918b767f" d="M515.73,88.27c-2.24,2.24-9.05-2.72-10.9-4.61-2.94-3.02-5.21-7.25-6.1-11.39,6.51-4.01,21.03,11.97,17,16Z"/>
      <path class="uuid-8968aab7-6671-4673-b918-ea18918b767f" d="M452.73,173.26c.66,5.27,9.37,5.25,10.8,7.25.61.86,0,2.27.2,2.75l-1,2c-6.76-3.5-13.39-7.24-20-11-1.64-.93-3.19-1.1-5.04-2.46-1.09-.8-8.95-8.54-7.95-9.54,6.25,2.75,11.76,8.07,18.3,10.22,1.96.65,3.27.44,4.7.78Z"/>
      <path class="uuid-8968aab7-6671-4673-b918-ea18918b767f" d="M502.72,167.28c.51.51.69,2.17-1.29,1.8-9.24-1.72-18.42-3.97-27.74-5.28l-22.96-7.52,51.99,11Z"/>
      <path class="uuid-8968aab7-6671-4673-b918-ea18918b767f" d="M487.73,199.26v1c-4.38.46-8.41,1.64-14,2,.32-2.33-.53-3.03-2.05-4.45-4.97-4.66-13.36-7.04-17.95-12.54l33.99,13.99Z"/>
      <path class="uuid-81ff6aab-c066-4586-83d0-573a539ddaaa" d="M425.73,170.26c3.73,4.66,10.92,12.32,15.52,15.98,6.61,5.26,14.99,7.67,21.48,13.01-13.32-4.11-24.21-9.36-33.51-19.98-1.94-2.22-3.13-5.29-4.49-7.01l1-2Z"/>
      <path class="uuid-81ff6aab-c066-4586-83d0-573a539ddaaa" d="M413.73,389.26c-.67-.02-1.34.03-2,0-.78-.03-1.56.23-1.96-.73l-9.03-37.27c2.39,2.09,3.86,6.51,5.02,9.47,3.11,7.98,6.56,20.32,7.97,28.53Z"/>
      <path class="uuid-81ff6aab-c066-4586-83d0-573a539ddaaa" d="M353.73,142.26l1.99,1.99v4c7.82-4.27,13.81-1.27,22.02-.5-4.53,2.6-9.76-.08-15.43.59-9.6,1.12-5.65,5.56-8.09,12.92-4.66-.1-1.66-15.47-2.49-19.01.66.02,1.34-.06,2,0Z"/>
      <path class="uuid-8968aab7-6671-4673-b918-ea18918b767f" d="M463.73,172.26c.47,2.67-.63,2.04-3,2-.7-.29-4.47-.66-6-1-6.56-5.88-16.14-8.21-22-14.99l31,13.99Z"/>
      <path class="uuid-81ff6aab-c066-4586-83d0-573a539ddaaa" d="M298.73,169.26c.65-.07,1.34.06,2,0,.07.92-.69,1.42-1,2-.99-.07-2.02.11-3,0-5.04-.54-20,6.26-26.8,7.7-2.13.45-4.61,1.11-6.73,1.28-1.1.09-3.72.74-3.47-.97,10.6-.96,21.72-8.02,31.73-9.77,2.55-.45,4.91,0,7.26-.24Z"/>
      <path class="uuid-81ff6aab-c066-4586-83d0-573a539ddaaa" d="M505.73,182.26c3.6,1.72,6.49,3.08,10.76,3.74s11.93-1.59,12.24,3.25c-9.58-.02-19.5-.74-26.99-6.99.8,0,.39-1.72,4,0Z"/>
      <path class="uuid-8968aab7-6671-4673-b918-ea18918b767f" d="M238.72,78.27c1.24,1.38-.51,2.49-1.24,3.29-1.31,1.43-10.72,7.79-11.75,6.7-2.95-3.13,11.48-11.66,12.99-9.99Z"/>
      <path class="uuid-8968aab7-6671-4673-b918-ea18918b767f" d="M405.72,253.27c2.82,2.54-13.79,9.37-15.01,1.5-.46-2.97,6.51-.42,8.52-.42,2.24,0,4.26-1.16,6.49-1.09Z"/>
      <path class="uuid-8968aab7-6671-4673-b918-ea18918b767f" d="M338.73,159.27c-2.94,7.63-6.31,15-10.52,22.01-.34.57-.92,3.85-2.48,1.97-.78-.94,8.77-19.79,10.41-22.11.84-1.19.03-2.46,2.59-1.87Z"/>
      <path class="uuid-8968aab7-6671-4673-b918-ea18918b767f" d="M337.72,245.27c-1.05,6.67-11.65,4.9-12.99-1l12.99,1Z"/>
      <path class="uuid-81ff6aab-c066-4586-83d0-573a539ddaaa" d="M300.73,181.26l1,2c-5.98,2.98-10.34,2.78-16.51,4.98,1-2.04,5.53-5.85,7.51-5.98.33-.02.67.02,1,0,2.09-.13,3.39.95,7-1Z"/>
      <path class="uuid-8968aab7-6671-4673-b918-ea18918b767f" d="M354.72,248.27c-1.21,6.06-10.35,5.04-10.99-1,3.79.6,7.17,2.43,10.99,1Z"/>
      <path class="uuid-8968aab7-6671-4673-b918-ea18918b767f" d="M369.73,251.27c-2.74,5.69-8.6,5.15-9.99-1l9.99,1Z"/>
      <path class="uuid-81ff6aab-c066-4586-83d0-573a539ddaaa" d="M416.73,186.26c.16.31,1.62.83,1.82,1.64l7.17,13.36c-4.35-3.52-6.88-8.59-9.99-13l1-2Z"/>
      <path class="uuid-8968aab7-6671-4673-b918-ea18918b767f" d="M313.73,238.26c-.59,3.67,5.45,4.5,5.87,5.13,4.18,6.19-10-.12-7.87-5.13.66.06,1.35-.07,2,0Z"/>
      <path class="uuid-8968aab7-6671-4673-b918-ea18918b767f" d="M409.72,259.25c-1.82-1.71,6.17-6.62,7-2.48.66,3.3-5.62,3.76-7,2.48Z"/>
      <path class="uuid-8968aab7-6671-4673-b918-ea18918b767f" d="M314.72,246.28c.28,1.74-2.37,1.01-3.3.75-3.22-.89-3.66-2.39-3.68-5.77l6.98,5.01Z"/>
      <path class="uuid-81ff6aab-c066-4586-83d0-573a539ddaaa" d="M411.73,190.26c1.11.3,1.52,1.05,2,2l-2,2c-.86-1.44-1.31-2.56-2-4,.63.1,1.46-.15,2,0Z"/>
      <path class="uuid-81ff6aab-c066-4586-83d0-573a539ddaaa" d="M431.72,155.27v1.99c-1.47.32-2.08-.44-2.99-1.5l2.99-.49Z"/>
      <path class="uuid-769fd148-4c0a-4774-ae7f-739c0db3ff85" d="M303.72,439.27c.68.35-.59,1.7-1.99.98-.68-.35.59-1.7,1.99-.98Z"/>
      <path class="uuid-8968aab7-6671-4673-b918-ea18918b767f" d="M416.73,186.26c-3.11-6.05-6.58-15.25-6.51-21.99,9.26,10.71,10.73,28.22,24.48,34.51-3.47-5.53-9.87-9.4-10.49-16.49,8.2,5.3,14.72,14.92,24.51,16.97-7.42-7.83-17.37-12.53-24.51-20.98-1.44-1.71-12.37-18.33-11.49-19,1.16-.89,2.36-.12,3.25,1.26,3.02,4.67,5.49,7.59,8.74,11.73,1.35,1.72,2.54,4.79,4.49,7.01,9.3,10.62,20.19,15.87,33.51,19.98-6.49-5.34-14.86-7.76-21.48-13.01-4.6-3.66-11.8-11.31-15.52-15.98-1.68-2.1-2.24-5.81-4.99-6.01-.21-1.92,1.92-.7,2.73-.23,4.88,2.88,14.29,12.25,19.27,16.24,3.6,2.89,6.86,6.13,10.68,8.82,6.4,4.49,14.14,7.39,19.32,13.18-5.53.37-12.12,1.82-17.57,1.09-1.98-.27-1.27-2.16-1.93-2.13-3.48.16-7.39,2.28-13.96,1.97-3.05-.14-5.56.03-8-.09s-13.02-.65-13.91-.97c-1.67-.6-1.29-2.99-2.12-2.89-.9,3.75-5.49,1.48-8.5,2.02l.02-16c1.51.41,2.28,3.52,2.99,4.99s1.14,2.56,2,4c3.54,5.91,3.98,1.96,2-2-.48-.95-.89-1.7-2-2l-3.99-13c3,1.97,3.64,6.09,5.55,8.99.73,1.11,2.15,1.6,2.44,2.01,3.11,4.41,5.64,9.48,9.99,13l-7.17-13.36c-.2-.82-1.66-1.33-1.82-1.64Z"/>
      <path class="uuid-8968aab7-6671-4673-b918-ea18918b767f" d="M425.73,161.25c-.18-1.97,1.96-1.01,2.97.52l-2.97-.52Z"/>
      <path class="uuid-769fd148-4c0a-4774-ae7f-739c0db3ff85" d="M446.73,563.26v-36c7.94-2.33,19.44.13,23.85,7.65,8.13,13.86-11.11,27.97-23.85,28.35Z"/>
      <path class="uuid-769fd148-4c0a-4774-ae7f-739c0db3ff85" d="M698.73,563.26v-36c38.43-5.84,31.96,34.08,0,36Z"/>
      <path class="uuid-769fd148-4c0a-4774-ae7f-739c0db3ff85" d="M390.45,527.46c7.3-1.64,10.22,4.32,12.45,10.13,5.46,14.16,5.97,57.79-5.76,68.59-6.83,6.29-11.69.35-14.59-6.24-7.1-16.1-6.82-50.92,2.01-66.34,1.41-2.47,2.85-5.46,5.89-6.14Z"/>
      <polygon class="uuid-8968aab7-6671-4673-b918-ea18918b767f" points="514.73 573.26 522.24 541.26 527.05 557.44 529.73 573.26 514.73 573.26"/>
      <path class="uuid-23dca293-ddaf-4064-9279-a605c6d1d587" d="M454.35,80.66c2.1,1.69,5.79,6.36,6.61,8.87,6.77,20.75-21.48,18.39-31.77,7.77-17.11-17.66,7.34-30.97,25.16-16.63ZM435.48,80.47c-11.73,1.85-1.88,13.3,4.55,15.99s17.44,3.64,14.25-6.25c-1.99-6.17-12.62-10.71-18.79-9.73Z"/>
      <path class="uuid-23dca293-ddaf-4064-9279-a605c6d1d587" d="M375.48,24.52c10.06-1.45,24.38,1.86,24.32,14.25-.08,16.98-40.2,17.07-40.18-.01.01-8.31,8.59-13.18,15.85-14.23ZM374.45,30.49c-2.05.42-7.09,3.15-8.01,5.04-5.77,11.86,31.52,12.1,25.78-.25-2.52-5.42-12.71-5.81-17.77-4.79Z"/>
      <path class="uuid-23dca293-ddaf-4064-9279-a605c6d1d587" d="M326.48,73.53c24.75-3.55,21.49,20.87,4.27,25.26-27.01,6.89-29.38-21.66-4.27-25.26ZM326.46,79.51c-12.29,1.89-16.9,14.15-1.35,12.65,12.35-1.19,19.42-15.42,1.35-12.65Z"/>
      <path class="uuid-23dca293-ddaf-4064-9279-a605c6d1d587" d="M315.44,42.54c6.09,6.11-1.56,15.26-7.18,18.76-7.86,4.88-26.92,8.25-23.07-6.06,2.44-9.05,23.02-19.94,30.25-12.69ZM291.81,58.17c2.75,3.91,20.45-4.32,18.9-10.36-1.68-6.54-22.75,4.88-18.9,10.36Z"/>
      <path class="uuid-23dca293-ddaf-4064-9279-a605c6d1d587" d="M429.99,33.52c.69-.73,4.16-2.03,5.3-2.19,9.6-1.37,20.7,3.74,23.02,13.87,4.05,17.7-30.77,10.01-29.61-7.44.09-1.32.38-3.29,1.28-4.25ZM451.73,48.26c3.69-9.34-20.27-16.93-16.51-7.06,2.25,5.91,10.77,8.1,16.51,7.06Z"/>
      <path class="uuid-23dca293-ddaf-4064-9279-a605c6d1d587" d="M504.45,115.48c12.73-1.25,25.68,20.3,14.02,25.02-15.93,6.44-31.22-23.33-14.02-25.02ZM504.36,121.34c-5.47,1.57,5.36,16.68,11.42,12.48,4.34-3-5.52-14.17-11.42-12.48Z"/>
      <path class="uuid-23dca293-ddaf-4064-9279-a605c6d1d587" d="M253.48,94.53c17.57-2.48,13.84,14.8,2.24,20.23-23.86,11.17-23.22-17.27-2.24-20.23ZM253.46,99.49c-7.01,1.41-15.39,13.78-2.7,10.3,6.44-1.77,14.29-12.64,2.7-10.3Z"/>
      <path class="uuid-81ff6aab-c066-4586-83d0-573a539ddaaa" d="M537.68,142.29c1.35,1.12,5.64,19.85,5.8,22.8.1,1.81.69,2.89-1.28,4.17-2.46.47-1.39-1.95-1.47-3.49-.5-8.89-4.28-14.39-6.03-22.98-.04-.88,2.77-.65,2.97-.49Z"/>
      <path class="uuid-81ff6aab-c066-4586-83d0-573a539ddaaa" d="M511.73,193.25l-17.79-3.7-8.21-4.28c5.38.36,11.55,2.08,16.76,3.73,2.9.92,7.55,1.72,9.24,4.25Z"/>
      <path class="uuid-81ff6aab-c066-4586-83d0-573a539ddaaa" d="M339.72,28.27c.58.63-.1,3.49-1.65,3.84l-9.34,7.15c-3.42-4.94,10.1-11.95,10.99-10.99Z"/>
      <path class="uuid-81ff6aab-c066-4586-83d0-573a539ddaaa" d="M482.1,80.88c9.68,9.15-5.51,7.69-3.37-2.62,2.31-.52,2.25,1.56,3.37,2.62Z"/>
      <path class="uuid-81ff6aab-c066-4586-83d0-573a539ddaaa" d="M494.72,102.26c-1.52,1.81-7.11-9.47-6.99-10.99,1.71-1.77,8.55,8.46,6.99,10.99Z"/>
      <path class="uuid-81ff6aab-c066-4586-83d0-573a539ddaaa" d="M306.72,114.27c2.81,2.78-5.47,5.56-7,3.99-2.85-2.93,5.87-5.11,7-3.99Z"/>
      <path class="uuid-81ff6aab-c066-4586-83d0-573a539ddaaa" d="M218.72,120.27c.58.53-1.16,3.99-2,4.49-6.16,3.67-4.91-5.94,2-4.49Z"/>
      <path class="uuid-81ff6aab-c066-4586-83d0-573a539ddaaa" d="M275.72,76.27c.36,1.81-.88,2.47-2.07,3.42-6.52,5.16-4.59-4.84,2.07-3.42Z"/>
      <rect class="uuid-81ff6aab-c066-4586-83d0-573a539ddaaa" x="469.73" y="125.26" width="2.99" height="6.01"/>
      <path class="uuid-81ff6aab-c066-4586-83d0-573a539ddaaa" d="M363.72,65.27c2.29,2.28-4.12,6.31-4.99,2.48-.55-2.45,4.34-3.13,4.99-2.48Z"/>
      <path class="uuid-81ff6aab-c066-4586-83d0-573a539ddaaa" d="M363.38,441.92l11.33-20.66c.93,5.92-2.33,10.73-4.47,16.01-1.69,4.15-.25,6.4-5.94,9.06s-5.99-2.36-.92-4.41Z"/>
      <path class="uuid-81ff6aab-c066-4586-83d0-573a539ddaaa" d="M394.72,309.26c.78,10.18,4.62,20.93,5.6,30.99.15,1.55.87,3.09-1.11,4s-2.05-3.48-2.32-4.65c-1.61-7.13-3.7-17.7-4.15-24.85-.13-2-1.13-6.39,1.98-5.49Z"/>
      <path class="uuid-81ff6aab-c066-4586-83d0-573a539ddaaa" d="M329.71,430.27c.77.77,2.78,7.55,6.06,8.45l8.95,3.54c-7.56,3.73-17.13-2.41-17.03-10.47.02-1.57.88-2.67,2.02-1.52Z"/>
      <path class="uuid-81ff6aab-c066-4586-83d0-573a539ddaaa" d="M330.73,257.26v18h-3c.36-6.08.37-11.9,0-18.01h3Z"/>
      <path class="uuid-81ff6aab-c066-4586-83d0-573a539ddaaa" d="M327.72,331.27c.53.52-2.46,15.03-4.99,11.99-1.07-2.06,1.35-15.58,4.99-11.99Z"/>
      <path class="uuid-81ff6aab-c066-4586-83d0-573a539ddaaa" d="M402.73,383.76c-.04-.29-1.48-1.09-1-1.49,1.46-.88,3,1.43,3,2.49v14.5h-2c-.47-4.88.65-10.77,0-15.5Z"/>
      <path class="uuid-81ff6aab-c066-4586-83d0-573a539ddaaa" d="M380.73,364.25c-1.56-2.12,4.35-4.84,5.99-1.47.47,3.39-5.4,2.28-5.99,1.47Z"/>
      <path class="uuid-81ff6aab-c066-4586-83d0-573a539ddaaa" d="M375.73,264.26c.01,1.7.07,2.93-1.52,4-2.81-.16-5.31-4.58-1.2-4.81.71-.04,1.98.88,2.71.81Z"/>
      <path class="uuid-81ff6aab-c066-4586-83d0-573a539ddaaa" d="M390.73,197.26c1.19-1.57,1.83-.03,2.01,1.48,1.09,9.25.98,18.86,3.01,28.01.07,1.3-5.01.39-5.01-.99v-28.5Z"/>
      <path class="uuid-81ff6aab-c066-4586-83d0-573a539ddaaa" d="M345.72,200.27c0,3.71-2.24,13.26-3.98,16.32-.77,1.36-1.8.52-3.01.67-.57-.54,3.79-13.17,4.55-14.99.65-1.58-.14-2.46,2.44-2Z"/>
      <path class="uuid-23dca293-ddaf-4064-9279-a605c6d1d587" d="M299.73,171.26c-1.9,3.53-4.11,6.36-8.5,7.01-5.54.82,5.04-5.96,5.5-7.01.98.11,2.01-.07,3,0Z"/>
      <path class="uuid-23dca293-ddaf-4064-9279-a605c6d1d587" d="M278.72,181.27v1.99s-3.99,0-3.99,0c-1.21-.55,3.44-2.53,3.99-1.99Z"/>
      <path class="uuid-23dca293-ddaf-4064-9279-a605c6d1d587" d="M286.72,178.27c1.09,1.09-.9,3.08-1.99,1.99s.9-3.08,1.99-1.99Z"/>
      <path class="uuid-23dca293-ddaf-4064-9279-a605c6d1d587" d="M413.73,192.26c1.98,3.96,1.54,7.91-2,2l2-2Z"/>
      <path class="uuid-23dca293-ddaf-4064-9279-a605c6d1d587" d="M315.23,151.26c.65.33.65.67,0,1v-1Z"/>
      <path class="uuid-769fd148-4c0a-4774-ae7f-739c0db3ff85" d="M435.48,80.47c6.17-.98,16.8,3.56,18.79,9.73,3.19,9.9-8.06,8.84-14.25,6.25s-16.27-14.13-4.55-15.99Z"/>
      <path class="uuid-769fd148-4c0a-4774-ae7f-739c0db3ff85" d="M374.45,30.49c5.06-1.03,15.25-.63,17.77,4.79,5.75,12.36-31.55,12.12-25.78.25.92-1.9,5.95-4.62,8.01-5.04Z"/>
      <path class="uuid-769fd148-4c0a-4774-ae7f-739c0db3ff85" d="M326.46,79.51c18.07-2.77,10.99,11.46-1.35,12.65-15.54,1.5-10.94-10.76,1.35-12.65Z"/>
      <path class="uuid-8968aab7-6671-4673-b918-ea18918b767f" d="M291.81,58.17c-3.84-5.48,17.22-16.9,18.9-10.36,1.55,6.04-16.15,14.27-18.9,10.36Z"/>
      <path class="uuid-8968aab7-6671-4673-b918-ea18918b767f" d="M451.73,48.26c-5.74,1.05-14.26-1.15-16.51-7.06-3.75-9.87,20.2-2.28,16.51,7.06Z"/>
      <path class="uuid-8968aab7-6671-4673-b918-ea18918b767f" d="M504.36,121.34c5.9-1.69,15.76,9.48,11.42,12.48-6.06,4.2-16.89-10.91-11.42-12.48Z"/>
      <path class="uuid-8968aab7-6671-4673-b918-ea18918b767f" d="M253.46,99.49c11.59-2.34,3.74,8.53-2.7,10.3-12.69,3.48-4.31-8.89,2.7-10.3Z"/>
      <path class="uuid-23dca293-ddaf-4064-9279-a605c6d1d587" d="M389.53,93.24c23.77-3.41,20.55,19.11,4.27,23.26-27.01,6.89-29.38-19.66-4.27-23.26ZM389.51,99.23c-12.29,1.89-16.9,14.15-1.35,12.65,12.35-1.19,19.42-15.42,1.35-12.65Z"/>
      <path class="uuid-769fd148-4c0a-4774-ae7f-739c0db3ff85" d="M389.51,99.23c18.07-2.77,10.99,11.46-1.35,12.65-16.53,1.6-11.92-10.61,1.35-12.65Z"/>
    </g>
  </g>
</svg>