<?xml version="1.0" encoding="UTF-8"?>
<svg id="uuid-af905ec0-e87c-46ae-9219-c0fe64c5152e" xmlns="http://www.w3.org/2000/svg" version="1.1" viewBox="0 0 741.3 623.7">
  <!-- Generator: Adobe Illustrator 30.1.0, SVG Export Plug-In . SVG Version: 2.1.1 Build 136)  -->
  <defs>
    <style>
      .st0 {
        fill: #050505;
      }

      .st1 {
        fill: #edeeee;
      }

      .st2 {
        fill: #1c1c1c;
      }

      .st3 {
        fill: #fafafa;
      }

      .st4 {
        fill: #0a0a0a;
      }

      .st5 {
        fill: #c10007;
      }
    </style>
  </defs>
  <g id="uuid-692b3325-3544-4738-bb74-d57badbf81bd">
    <g>
      <path class="st5" d="M557.5,155.3c1.5,9.1-10.4,36.3-17.3,31,1.3-1.5,1.8-4,1.5-5.5-1.5-8.7-31-19.6-39-22-32.7-9.7-74.5-15.9-108.6-20.4-50.4-6.6-135.3-15.7-182,3.7-7.1,2.9-15.1,7-16.8,15.2-9.6-11.2-6.1-23.4,1.5-34.5,4.9-7.3,19.3-21.7,26.7-26.3s14.8-5.4,20.2-12.8c6.7-9.2,14.9-12.8,24-19.9,2.5-1.9,18.6-14.8,18.8-16,.2-1.1-.9-2.6-.6-3.7.4-1.5,12.4-7.2,14.5-7.3,1.7-.1,3.5,1.1,5.6.5.6-.2,7.9-5.8,10-7,63.4-34.8,117.4-27.2,166.7,25.6,1.7,1.8,11.1,11.7,11.4,12.5.5,1.3-1,7.1-.2,10.3.9,4,10.2,13.5,14.1,14.9,2.7,1,6.3.3,7.5,1,2.1,1.2,23.8,34.2,26.6,38.9M375.5,24.5c-7.3,1-15.8,5.9-15.9,14.2,0,17.1,40.1,17,40.2,0,0-12.4-14.3-15.7-24.3-14.2h0ZM339.7,28.3c-.9-1-14.4,6-11,11l9.3-7.2c1.6-.3,2.2-3.2,1.6-3.8ZM430,33.5c-.9,1-1.2,2.9-1.3,4.2-1.2,17.5,33.7,25.1,29.6,7.4-2.3-10.1-13.4-15.2-23-13.9-1.1.2-4.6,1.5-5.3,2.2h0ZM315.4,42.5c-7.2-7.2-27.8,3.7-30.2,12.7-3.9,14.3,15.2,11,23.1,6.1,5.6-3.5,13.3-12.6,7.2-18.8h0ZM363.7,65.3c-.6-.7-5.5,0-5,2.5.9,3.8,7.3-.2,5-2.5ZM326.5,73.5c-25.1,3.6-22.7,32.2,4.3,25.3,17.2-4.4,20.5-28.8-4.3-25.3ZM454.4,80.7c-17.8-14.3-42.3-1-25.2,16.6,10.3,10.6,38.5,13,31.8-7.8-.8-2.5-4.5-7.2-6.6-8.9h0ZM275.7,76.3c-6.7-1.4-8.6,8.6-2.1,3.4,1.2-.9,2.4-1.6,2.1-3.4ZM482.1,80.9c-1.1-1.1-1.1-3.1-3.4-2.6-2.1,10.3,13,11.8,3.4,2.6ZM494.7,102.3c1.6-2.5-5.3-12.8-7-11-.1,1.5,5.5,12.8,7,11ZM253.5,94.5c-21,3-21.6,31.4,2.2,20.2,11.6-5.4,15.3-22.7-2.2-20.2ZM306.7,114.3c-1.1-1.1-9.9,1.1-7,4,1.5,1.6,9.8-1.2,7-4ZM504.5,115.5c-17.2,1.7-1.9,31.5,14,25,11.7-4.7-1.3-26.3-14-25h0ZM218.7,120.3c-6.9-1.4-8.2,8.2-2,4.5.8-.5,2.6-4,2-4.5ZM472.7,125.3h-3v6h3v-6ZM537.7,142.3c-.2-.2-3-.4-3,.5,1.8,8.6,5.5,14.1,6,23,0,1.5-1,4,1.5,3.5,2-1.3,1.4-2.4,1.3-4.2-.2-2.9-4.5-21.7-5.8-22.8h0Z"/>
      <path class="st4" d="M490.3,51.6c2.4,2.5,10,12.6,11.8,13.7,2.4,1.3,4.7.7,7.3,1.7,5.9,2.2,12,8.5,13,15,.5,2.8-.6,7.2-.2,8.3,2.6,7.2,19.5,26.8,24.8,35.1,11.8,18.3,23.8,41.1,9,61.9-14.1,19.9-60.2,23.2-82.9,24.1-21.9.9-43.8-.5-65.6-2.1l2,22c2.4,0,4.9-.3,7.3.2,4.7,1.1,12.4,12.5,12.6,17.4.2,5.1-6.9,14.8-11.9,16-1.7.4-7,.1-7.1,1-.5,20.7.4,41.4,4.2,61.8,10,53.4,47.7,121.8-36.8,131.5-29.3,3.4-86.5,2.8-97.6-31.1s20.1-92.9,27.8-129.8c1.2-5.7,7.4-41.6,5.4-43.9-.4-.5-8.2-2.2-11.4-6.1-1-1.2-5.3-10.4-5.4-11.5s1.1-5.3,1.6-6.3c.6-1.2,3.2-4.7,4.4-6.6,1.5-2.4,8.7-5.3,11.5-5.6,2.2-.3,4.8,1.1,5.8.8,2.9-.6,5.4-14.1,7.6-16.8-23.2-1.7-46.5-3.8-69.2-9.3-18.4-4.4-59.4-15.6-71.3-29.7-18.5-21.8,2-48.4,18.5-63.5,1.9-1.8,12.1-8.8,12.5-9.5,2.4-4.1.4-8.6,6.6-13.4,6.6-5.1,13-3.1,18.3-5.7,3.3-1.6,29.8-21.2,32.2-23.8,1.7-1.8,1.9-4.3,3.5-6.5,6.1-8.5,14.8-8,22.7-11.3,3.3-1.4,7.9-5.5,11.6-7.4,71.7-36.5,122.4-28.5,177.3,29.5h0ZM487.7,200.3c1-.1,2.8,1.1,4.4.9,43.9-5.3,80.9-17.1,50.1-67.8-2.8-4.6-24.6-37.7-26.6-38.9-1.2-.7-4.8,0-7.5-1-3.9-1.4-13.1-10.9-14.1-14.9-.7-3.3.7-9.1.2-10.3-.3-.8-9.7-10.6-11.4-12.5C433.4,2.8,379.5-4.7,316,30.1c-2.2,1.2-9.5,6.9-10,7-2.2.6-3.9-.7-5.6-.5-2.1.2-14.1,5.9-14.5,7.3-.3,1.2.8,2.7.6,3.7-.2,1.2-16.3,14.1-18.8,16-9.2,7.1-17.3,10.7-24.1,19.9-5.4,7.4-13.2,8.4-20.2,12.8-7.4,4.6-21.8,19-26.7,26.3-7.5,11.1-11.1,23.3-1.5,34.5,1.7-8.2,9.7-12.2,16.8-15.2,46.7-19.3,131.7-10.3,182-3.7,34.1,4.5,76,10.6,108.6,20.4,8,2.4,37.5,13.3,39,22,.3,1.5.1,5.1-1.5,5.5-1,.2-5.4-4.4-9.1-4.7-7.8-.5-17.1,2.8-25.4.7-3.6-1.7-3.2,0-4,0-12.3-.1-26.1-7.1-38-10l-31-14c5.9,6.8,15.4,9.1,22,15-.6-.1-1.4.1-2,0-1.4-.3-2.7-.1-4.7-.8-6.5-2.1-12-7.5-18.3-10.2-1,1,6.9,8.7,8,9.5,1.9,1.4,3.4,1.5,5,2.5.4,1.9,2,4.8,0,6-5-4-14.4-13.4-19.3-16.2-.8-.5-2.9-1.7-2.7.2,2.8.2,3.3,3.9,5,6l-1,2c-3.3-4.1-5.7-7.1-8.7-11.7-.9-1.4-2.1-2.1-3.2-1.3-.9.7,10,17.3,11.5,19,7.1,8.4,17.1,13.1,24.5,21-9.8-2.1-16.3-11.7-24.5-17,.6,7.1,7,11,10.5,16.5-13.8-6.3-15.2-23.8-24.5-34.5,0,6.7,3.4,15.9,6.5,22l-1,2c-.3-.4-1.7-.9-2.4-2-1.9-2.9-2.5-7-5.5-9l4,13c-.5-.1-1.4.1-2,0-.7-1.5-1.5-4.6-3-5v16c3-.5,7.6,1.7,8.5-2,.8-.1.4,2.3,2.1,2.9.9.3,11.6.9,13.9,1s5,0,8,0c6.6.3,10.5-1.8,14-2,.7,0,0,1.9,1.9,2.1,5.5.7,12-.7,17.6-1.1.3,0,.7,0,1,0,5.6-.4,9.6-1.5,14-2h0ZM515.7,88.3c4-4-10.5-20-17-16,.9,4.1,3.2,8.4,6.1,11.4,1.9,1.9,8.6,6.8,10.9,4.6ZM238.7,78.3c-1.5-1.7-15.9,6.9-13,10,1,1.1,10.4-5.3,11.8-6.7.7-.8,2.5-1.9,1.2-3.3ZM295.7,142.3h-22.5c-.2,0-1.6-1.4-1.5-2l23-1c.2-1.7-2.3-.9-3.5-1-12-.5-23.9,1.4-35.9,2.1l-17.6,3.9c16.4,2,32.9.9,49.4-.1l8.6-1.9h0ZM351.7,142.3c-1.3,0-2.7,0-4,0-2.3,26.4-6.5,53-18,77,3,.9,6.3.9,9.1,2.4,2.2,1.2,3.7,4.2,4.5,4.4,1,.2,2.7-.9,4-.9,5.2.1,5-.4,9-.9,10.7-1.2,10.2,3.7,15.2,4.8,2.1.4,6.1-1.4,9.7-.8,2.6.4,4.4,2.9,6,2.9,1.5,0,3.6-1.9,6-2,2.9-.2,5.6,1.3,8.5,1.1-4.4-27.1-4-55,1-82l-5-1c-.4,10.1-2.1,21.4-4,31.5-.3,1.5,0,3.1-2,3.5-.2-11.9,1.2-23.8,5-35l-12-1c-.9.9,1.8,10.6-3,10l1-11c-8.9-1.4-17.5-1.4-26.5-2.1-1.1,0-2-.9-2.5-.9-.7,0-1.3,0-2,0h0ZM315.7,149.3c.4-.1,9.8-4.1,5.6-3.9-12.4,4.3-25.2,6.9-38.2,8.8-20.3,3-47.7,6.6-67.9,5.2-2.8-.2-8.9-.6-10.5-3,15.6,1.4,30,.5,45.5-1,22-2.2,44-6,65.5-11,.2-1.7-2.4-1.1-3.5-1-11.7.9-23.4,4-35,5-13.8,1.2-29,1.1-42.7-1.3-1-.2-2-1.5-3.3-1.7-5.2-.6-33.4,8.2-33.3,14.5,3.8,5.1,23.8,14.4,29.1,13.5.7-.1.6-1.7,2.1-2.2,4.5-1.4,10-1.7,14.6-2.8.6.3,1.5.2,2,1-5.6,1.4-11.3,2.7-17,4,3.1,3.5,9.7,4.8,14.2,6.3,28.4,8.9,58,12.7,87.7,13.6l4.6-17.9c-2.3,2.1-4.7,5.2-6,8.1-.6,1.4-.4,3.8-.6,3.9-.2.3-3.9-1.6-7,1-.3.2-.3,3.1-2,3-.9-3.9,1.7-2.6,2-3,.6-.7.9-5.4,1.5-7,1.2-3,3.4-5.7,4-9-5.5,6.9-11.6,13.1-19,18-2.2-1.9.7-1.9,1.1-2.4,2.8-3.2,26.5-27.2,23.4-30.6-1.9-.4-2.4,1.1-3.5,2-9.4,7.8-15.9,18.2-27.5,24l-1-2c2.6-1.4,8.2-6.2,9.5-9-3.1,2.7-7.5,5-11.1,6.9-1.6.8-3.7.8-4.4,1.1,6.9-7.2,11-6.9,18.5-11,5.6-3.1,11.4-11.4,16.5-15.5-11.2,3.4-16.4,14.4-29,15.5-.7,0-1.4,0-2,0,4.8-5.3,12.4-6.4,17-12,2.5-1.1,5-.3,5-4.5,0-3-4.6-.4-5-3.5h0ZM431.7,155.3l-3,.5c.9,1.1,1.5,1.8,3,1.5v-2ZM502.7,167.3l-52-11,23,7.5c9.3,1.3,18.5,3.6,27.7,5.3,2,.4,1.8-1.3,1.3-1.8ZM528.7,180.3c.3-1.7-.5-2-1.6-2.9-7.5-5.1-30.2-5.6-40.6-7.4-15.3-2.8-29.7-8.2-44.8-11.7l13.5,7c23.5,9,48.1,16.2,73.5,15h0ZM338.7,159.3c-2.6-.6-1.8.7-2.6,1.9-1.6,2.3-11.2,21.2-10.4,22.1,1.6,1.9,2.1-1.4,2.5-2,4.2-7,7.6-14.4,10.5-22ZM425.7,161.2l3,.5c-1-1.5-3.1-2.5-3-.5ZM313.7,238.3c2.2.2,6.2.8,8.2,1.3,3.9,1,8,5.1,13.1,3.5,1.7-.5,2.6-3.2,4.2-2.8l2.2,4c4.6,1.7,31.6,3.1,32.9,4.9.8,1.2,0,3.9,1.3,5.6,2.5,3.3,8.6,2.5,10.1-1.6-1.4.1-2.7-.1-4-.5-1.2-.4-4.8-1.2-5-2.5,3.1-.3,6.5.4,9.5,0,1.6-.2,2.6-1.9,4-2,.9,0,.6,1.9,1.5,2.5,1.4.9,16.6.9,18,0,1.1-.7,1.3-3.3,3-3.5l1.5,4,3.5-4c0,2.6-.8,3.8,2,2-.9,4.9,3.2,3.5,3-.4-.3-6.3-6.5-4.1-7-4.6s1.2-5.9-1.6-6.9c-3.7-1.3-3.3,1.6-3.5,1.7-1.5,1-3.6-2.7-5.8-3.4s-13.8-2-14.9-.3c-1.6,2.5,2.7,6.9-3.6,5.9-.8-.1-.4-2.8-1-4-2.5-5.1-10.7-5-14.5-1.5-1.6,1.5,0,4.2-3,3.4,2.5-4.9-3.8-10-8.5-10-2.6,0-4.8,1.9-7.1,2s-4.1-1.2-6.4-.6c-3.6,1-3.5,5.4-7,5.6,2.7-10.3-10.7-14.9-18.4-10.9-2.2,1.1-3.7,4.8-4.3,4.9-3.9.8-8.5-4.8-10.9,3.9-2,7.4,2,3.8,4.2,3.3,1.2-.3,1.9.7,2.3.8-2.1,5,12,11.3,7.9,5.1-.4-.6-6.5-1.5-5.9-5.1h0ZM314.7,246.3l-7-5c0,3.4.5,4.9,3.7,5.8.9.3,3.6,1,3.3-.8h0ZM337.7,245.3l-13-1c1.3,5.9,12,7.7,13,1ZM354.7,248.3c-3.8,1.4-7.2-.4-11-1,.6,6,9.8,7.1,11,1ZM369.7,251.3l-10-1c1.4,6.2,7.3,6.7,10,1ZM375.7,264.3c0-2-3.6-3.9-5.5-4-1.5,0-3.2,1.7-5.1,2-6.2.9-8.5-5-9-5-1.5-.1-5.3,1.9-7.8,1.7-4.7-.3-7.8-4.7-8.3-4.7-4-.4-11,5.6-16.4-.9-.2,3.8.3,7.6-.1,11.4-2.2,19.4-7.1,44.6-12.6,63.4-8.4,28.3-30.5,67.4-20.5,97,.5,1.6,7,14.6,9.3,12.2-2.1-6.9-8.1-18-5.8-25.3,2.6-8.1,3.9,5.8,4.1,6.6,2.6,9.9,8.4,15.4,12.8,24.2.6,1.7,8.3,3.1,8.9,2.6-2.1-4.8-5.8-9-7.5-14-3.1-9.6-3.4-25.4-1.2-35.2.6-2.6,1-6.6,3.7-7.8-.9,3.9.9,9.4.7,12.7,0,1.5-1.6,2.6-1.7,3.8-.6,13.2,1.4,27.2,10.4,37.5,5.5,6.2,13,7.3,21.1,7.9,4.4.3,13.6.5,17.8.2,1.5,0,8-.9,8.9-1.2.5-.2,5.7-6.4,6.5-7.5,10-14.1,7.9-27.5,11.4-42.6,1.9-8,4-1.1,3.8,4.8-.5,11.9-2.9,26.9-8.6,37.4-1.5,2.7-7.2,7.4-2,7s7.8-2.3,11.6-5.4c15.9-12.9,19.7-34.1,17-53.5.7,0,1.3,0,2,0,2.3,13.3,2,30.9-4.6,42.9l-9.4,11c5.4.9,10.8-4.6,14-8.5,20.3-25.5-4-78.1-8.8-107.1-2.9-17.1-4.6-40.5-4-57.8.1-4,3.1-8.9-4-4-1.8,12.6-1.5,25.2-2.1,37.9-.4,7.9-2.6,1.9-3-2-.6-6.5.3-18.2,1.1-24.9.5-3.8,1.6-8,2.9-11.6-4,1.3-6.5-2.7-9.6-3s-7.2,1.7-10.4,2h0ZM405.7,253.3c-2.2,0-4.2,1.1-6.5,1.1s-9-2.6-8.5.4c1.2,7.9,17.8,1,15-1.5h0ZM409.7,259.2c1.4,1.3,7.6.8,7-2.5-.8-4.1-8.8.8-7,2.5ZM303.7,439.3c-1.4-.7-2.7.6-2,1,1.4.7,2.7-.6,2-1Z"/>
      <path class="st4" d="M293.7,182.3c-.3,0-.7,0-1,0,.3-1.1,1.5-1.4,2-2-.1,0-.3,1.7-1,2Z"/>
      <path class="st0" d="M180.7,518.8c1.4-6.4,12.5-6.7,13.9,3.1-2,29.8,3,63.7.1,93-.9,8.8-11.6,8.8-15.3,2.2l-29.8-63.7v64.5c0,3.9-12.5,6.9-13.9-2.1-.5-25.7.4-51.3,0-77-.1-5.6-3.4-15.8,1.4-20.5,3-2.9,9.7-2.8,12.6.5,3.4,3.9,9.5,19.2,12.2,24.8,5.8,12.5,10.6,26.2,16.5,38.5.6,1.2.5,3,2.3,3.2v-66.5h0Z"/>
      <path class="st0" d="M446.7,617.8c-.8,4.6-12.7,7.9-13.9-2.1-3.5-29.1,2.4-64.2-.2-94-.8-6.8,9.4-7.2,14.5-7.5,37.9-1.8,53.8,30.6,23.3,54.3l-13.7,6.8c.8,0,1.5.2,2,.8,8.4,9.5,18.4,21.6,26,31.8,2.8,3.8,7.2,10.8.8,13.7-7.1,3.3-10.1-3.8-14.7-7.8l-24-30.5c-1.2,10.4,1.7,24.6,0,34.5h0ZM446.7,563.3c12.7-.4,32-14.5,23.9-28.3-4.4-7.5-15.9-10-23.9-7.7v36Z"/>
      <path class="st0" d="M698.7,618.8c-.8,2.6-5.4,3.6-8,3-8.2-1.7-4.7-11.6-4.9-17-1.1-24.6-3.3-56.8-1.1-81,.8-9,7.7-9,15.5-9.5,48.8-2.8,50.8,47.3,9.5,60.5l29.5,35.5c5.8,7.3-1.6,15.3-9.4,10.4-7.2-8.1-14.3-16.5-21-24.9-2.8-3.5-5.3-10.3-10-11.5v34.5h0ZM698.7,563.3c32-1.9,38.4-41.8,0-36v36Z"/>
      <path class="st0" d="M112.5,514.4c5.9-1,8.7,3.1,9.3,8.3,1.8,16.3,1.4,57.7-1.5,73.5-2.2,12-7.8,24.6-21.3,26.7-49.7,7.9-32-73.2-35-101,2.7-7.2,10.6-9.5,14.3-1.8,1.7,19.6-.7,40,.4,59.6.4,7.8,1.2,20.7,6.5,26.5,9.1,10,17.6,1.7,20.2-8.8,4-16,2.4-44.4,2.3-61.7,0-5.5-4.3-19.8,4.7-21.4h0Z"/>
      <path class="st0" d="M374.1,613.9c-15.5-17.5-12.8-65-3.2-85s35.4-19.1,44.4,1.4,8.6,71.6-9,87c-9.2,8.1-24.5,5.3-32.2-3.4h0ZM390.5,527.5c-3,.7-4.5,3.7-5.9,6.1-8.8,15.4-9.1,50.2-2,66.3,2.9,6.6,7.8,12.5,14.6,6.2,11.7-10.8,11.2-54.4,5.8-68.6-2.2-5.8-5.1-11.8-12.5-10.1h0Z"/>
      <path class="st0" d="M250.7,577.3c-5.1-.6-12.4,1.6-16.5-2-4.9-4.2-1-10.4,5-11s21-1.4,24.4,4.6c2.6,4.5,1,25.6-.4,31.4-6.9,28.7-43,31.4-52.8,3.8-8.2-23.4-6.9-101.9,34.3-88.3,10.7,3.5,21.3,22.9,9.2,25.3-11.1,2.2-5.6-12.2-15-13.6-14.1-2.2-17.7,28-18.2,37.3-.7,11.4-.1,48.8,18.2,45.3,6.2-1.2,11.7-12.6,11.7-18.3v-14.5h0Z"/>
      <path class="st0" d="M601.7,577.3c-6.7.4-20.5,1.3-17.6-9.1,1.7-6.1,25.3-5.3,29.6-.4,2.9,3.3,2.4,19,2,24-1.7,20.6-18.3,39.1-40,29.1-24.9-11.5-20.4-72.4-9.5-92.6,8.2-15.2,28.3-20.1,39.9-5.9,3.4,4.1,8.2,15.5.9,17.7-12.8,3.9-7.3-11.2-15.8-12.8-7.5-1.4-11.4,5.1-13.9,11-6.4,15.2-7.8,47.1-1.3,62.3,5.4,12.7,18.5,12.9,23.5,0,.4-1,2.3-8.2,2.3-8.7v-14.5h0Z"/>
      <path class="st0" d="M532.7,585.3c-6.5,1.6-13.2.8-19.9,1.1-1.5,1.3-4.2,28.7-7.2,33.3-3.1,4.7-12,3.3-12.9-3l8.2-44.7c3.9-14.2,5.9-28.8,10-43,.8-2.7,2.2-8.7,3.3-10.7,2.6-4.9,10.7-5.6,14.5-1.6,4.2,4.4,10.8,34.5,12.7,42.3,3.3,14,10.2,39.6,11.2,52.8.4,6.1-2.2,11.2-9.2,9.2s-9.1-29.1-10.7-35.8h0ZM514.7,573.3h15l-2.7-15.8-4.8-16.2-7.5,32Z"/>
      <path class="st0" d="M640.7,528.3v31h19.5c5.7,0,5.7,13,0,13h-19.5v35h31.5c.2,0,3.4,2.5,3.5,2.7,2.6,4.2.3,9.5-4.6,10.2-6.1,1-32.7,1-38.9,0-4.4-.7-5.2-3.4-5.6-7.4-2.9-28,2.2-60.6,0-89-.2-4.2,2.4-7.7,6.6-8.4,5-.8,31.1-.9,35.7.2,8.5,1.9,4.3,12.8-1.8,12.8h-26.5Z"/>
      <path class="st0" d="M15.7,529.3v31h23.5c4.2,0,5.5,13-2,13H15.7l-.2,44.3c-1.1,4.1-5.7,7.1-9.8,5.2-6.3-2.9-3.7-15.8-4-22-1.1-23.5-2.7-51.6-1.1-75,.5-7.4,1.7-9.6,9.5-10.5,7.8-.9,28.8-.9,36.7.3,5.1.7,10.5,2.7,8.6,9-.3.9-4,4.7-4.3,4.7H15.7Z"/>
      <path class="st0" d="M320.7,529.3v31c3.6-2,6.6,0,9.5,0,4.8-.2,8.5-2.6,13.9.1,7.1,3.6,2.3,12.9-1.9,12.9h-21.5l-.5,45c-1.8,6-12.2,5.6-13.3-.8l.3-99.3c1.5-2,3.5-2.7,6-3,6.6-.8,36-1,41.8.2,8.5,1.9,4.6,13.8-1.8,13.8h-32.5,0Z"/>
      <path class="st0" d="M289.4,621c-5.5,4.4-13-.4-12.7-7.2,2.2-29.1-3-62.5,0-91,1.1-11,13.7-10.5,15,1,3.2,28.2-2.5,62.2,0,91.1.1,1.8-1,5-2.4,6.1h0Z"/>
      <path class="st3" d="M411.7,389.3c2.7,19.4-1.1,40.6-17,53.5-3.8,3.1-6.4,5.1-11.6,5.4s.5-4.3,2-7c5.8-10.5,8.1-25.5,8.6-37.4.3-5.8-1.9-12.8-3.8-4.8-3.5,15.2-1.4,28.5-11.4,42.6-.8,1.1-6,7.3-6.5,7.5-.9.3-7.4,1.1-8.9,1.2-4.3.3-13.4.1-17.8-.2-8.1-.6-15.7-1.7-21.1-7.9-9-10.2-11-24.2-10.4-37.5,0-1.3,1.6-2.3,1.7-3.8.2-3.4-1.6-8.8-.7-12.7-2.7,1.2-3.1,5.2-3.7,7.8-2.1,9.8-1.9,25.6,1.2,35.2,1.6,5,5.4,9.2,7.5,14-.6.5-8.3-.9-8.9-2.6-4.5-8.8-10.3-14.2-12.8-24.2-.2-.8-1.5-14.6-4.1-6.6-2.3,7.3,3.7,18.5,5.8,25.3-2.2,2.4-8.8-10.6-9.3-12.2-10-29.7,12.2-68.7,20.5-97,5.5-18.7,10.4-44,12.6-63.4.4-3.8,0-7.6.1-11.4,5.3,6.5,12.4.5,16.4.9.5,0,3.5,4.4,8.3,4.7,2.5.2,6.2-1.8,7.8-1.7.5,0,2.8,5.9,9,5,1.9-.3,3.5-2,5.1-2,1.9,0,5.5,1.9,5.5,4-.7,0-2-.9-2.7-.8-4.1.2-1.6,4.6,1.2,4.8,1.6-1.1,1.5-2.3,1.5-4,3.2-.3,7.3-2.3,10.4-2s5.5,4.3,9.6,3c-1.3,3.6-2.4,7.8-2.9,11.6-.8,6.6-1.7,18.4-1.1,24.9.4,3.9,2.6,9.9,3,2,.6-12.7.3-25.2,2.1-37.9,7.1-4.9,4.1,0,4,4-.5,17.3,1.1,40.6,4,57.8,4.9,29,29.1,81.6,8.8,107.1-3.1,3.9-8.6,9.4-14,8.5l9.4-11c6.5-12.1,6.8-29.7,4.6-42.9-1.4-8.2-4.9-20.5-8-28.5-1.1-3-2.6-7.4-5-9.5l9,37.3c.4,1,1.2.7,2,.7h0ZM330.7,257.3h-3c.4,6.1.4,11.9,0,18h3v-18ZM394.7,309.3c-3.1-.9-2.1,3.5-2,5.5.5,7.1,2.5,17.7,4.1,24.9.3,1.2.4,5.6,2.3,4.6s1.3-2.5,1.1-4c-1-10.1-4.8-20.8-5.6-31h0ZM327.7,331.3c-3.6-3.6-6.1,9.9-5,12,2.5,3,5.5-11.5,5-12ZM380.7,364.2c.6.8,6.5,1.9,6-1.5-1.6-3.4-7.5-.6-6,1.5ZM402.7,383.8c.6,4.7-.5,10.6,0,15.5h2v-14.5c0-1.1-1.5-3.4-3-2.5-.5.4,1,1.2,1,1.5ZM363.4,441.9c-5.1,2-4.6,7,.9,4.4s4.3-4.9,5.9-9.1c2.1-5.3,5.4-10.1,4.5-16l-11.3,20.7h0ZM329.7,430.3c-1.1-1.1-2,0-2,1.5,0,8.1,9.5,14.2,17,10.5l-9-3.5c-3.3-.9-5.3-7.7-6.1-8.5h0Z"/>
      <path class="st3" d="M351.7,142.3c.8,3.5-2.2,18.9,2.5,19,2.4-7.4-1.5-11.8,8.1-12.9,5.7-.7,10.9,2,15.4-.6-8.2-.8-14.2-3.8-22,.5v-4l-2-2c.5,0,1.5.8,2.5.9,8.9.7,17.6.7,26.5,2.1l-1,11c4.8.6,2.1-9.1,3-10l12,1c-3.8,11.2-5.2,23.1-5,35,2-.4,1.7-2.1,2-3.5,1.9-10,3.6-21.4,4-31.5l5,1c-5,26.9-5.4,54.9-1,82-2.9.2-5.6-1.3-8.5-1.1-2.5.2-4.5,2.1-6,2-1.7,0-3.4-2.5-6-2.9-3.6-.6-7.6,1.2-9.7.8-5-1-4.5-6-15.2-4.8-4,.5-3.8,1.1-9,.9-1.3,0-3,1.1-4,.9-.8-.2-2.3-3.2-4.5-4.4-2.8-1.5-6.1-1.6-9.1-2.4,11.5-24,15.7-50.6,18-77,1.3,0,2.7,0,4,0h0ZM390.7,197.3v28.5c0,1.4,5.1,2.3,5,1-2-9.1-1.9-18.8-3-28-.2-1.5-.8-3.1-2-1.5h0ZM345.7,200.3c-2.6-.5-1.8.4-2.4,2-.8,1.8-5.1,14.4-4.5,15,1.2-.1,2.2.7,3-.7,1.7-3.1,4-12.6,4-16.3h0Z"/>
      <path class="st3" d="M311.7,238.3c-.4,0-1.1-1-2.3-.8-2.2.5-6.3,4.1-4.2-3.3,2.4-8.7,7-3.1,10.9-3.9.6-.1,2.1-3.8,4.3-4.9,7.7-4,21.1.5,18.4,10.9,3.5-.2,3.4-4.6,7-5.6,2.3-.7,4.1.8,6.4.6s4.5-2,7.1-2c4.7,0,11,5.2,8.5,10,3.1.7,1.4-2,3-3.4,3.8-3.5,12-3.6,14.5,1.5.6,1.2.2,3.9,1,4,6.3,1,2.1-3.4,3.6-5.9,1.1-1.7,12.8-.4,14.9.3s4.2,4.4,5.8,3.4c.2-.2-.2-3.1,3.5-1.7,2.9,1,1.1,6.4,1.6,6.9s6.7-1.7,7,4.6c.2,3.9-3.9,5.3-3,.4-2.8,1.8-1.9.6-2-2l-3.5,4-1.5-4c-1.7.2-1.9,2.8-3,3.5-1.5.9-16.7.9-18,0-.9-.6-.6-2.6-1.5-2.5-1.4,0-2.4,1.8-4,2-3,.4-6.4-.2-9.5,0,.2,1.2,3.8,2.1,5,2.5,1.3.4,2.6.6,4,.5-1.5,4.1-7.6,4.8-10.1,1.6-1.3-1.8-.5-4.5-1.3-5.6-1.3-1.8-28.3-3.2-32.9-4.9l-2.2-4c-1.5-.4-2.5,2.3-4.2,2.8-5.1,1.5-9.1-2.6-13.1-3.5-2-.5-6-1-8.2-1.3-.6,0-1.3,0-2,0h0Z"/>
      <path class="st1" d="M300.7,181.3c-3.6,1.9-4.9.9-7,1,.7-.3.9-1.9,1-2,.6-.3,2.8-.3,4.4-1.1,3.6-1.9,8.1-4.2,11.1-6.9-1.3,2.8-6.9,7.6-9.5,9h0Z"/>
      <path class="st1" d="M294.7,180.3c-.5.6-1.7.9-2,2-2,.1-6.5,3.9-7.5,6,6.2-2.2,10.5-2,16.5-5,11.6-5.8,18.1-16.2,27.5-24,1.1-.9,1.6-2.4,3.5-2,3.1,3.4-20.6,27.4-23.4,30.6-.4.5-3.3.5-1.1,2.4,7.4-4.8,13.5-11.1,19-18-.6,3.2-2.8,6-4,9-.6,1.6-.9,6.3-1.5,7-.3.4-2.9-.9-2,3,1.7,0,1.7-2.8,2-3,3.1-2.5,6.7-.7,7-1,.1-.1,0-2.6.6-3.9,1.3-2.8,3.6-6,6-8.1l-4.6,17.9c-29.7-.9-59.3-4.8-87.7-13.6-4.6-1.4-11.2-2.8-14.2-6.3,5.7-1.3,11.4-2.6,17-4,12.8-3.2,24.5-4.7,37.2-7.3,9.4-1.9,18.4-4.8,27.8-6.7-2.8,2.8-8,4.3-11.8,5.7-18.9,7-40.1,10.9-60.2,11.3.4,1.8,2,1.9,3.5,2,22.9,2.6,52.7-7.4,73.5-17-4.6,5.6-12.2,6.7-17,12-2.4.2-4.7-.2-7.3.2-10,1.8-21.1,8.8-31.7,9.8-.2,1.7,2.4,1.1,3.5,1,2.1-.2,4.6-.8,6.7-1.3,6.8-1.4,21.8-8.2,26.8-7.7-.5,1.1-11,7.8-5.5,7,4.4-.6,6.6-3.5,8.5-7,.3-.6,1.1-1.1,1-2,12.6-1.1,17.8-12.1,29-15.5-5,4.2-10.9,12.5-16.5,15.5-7.5,4.1-11.6,3.8-18.5,11h0ZM286.7,178.3c-1.1-1.1-3.1.9-2,2s3.1-.9,2-2ZM278.7,181.3c-.5-.6-5.2,1.4-4,2h4v-2Z"/>
      <path class="st1" d="M243.7,168.3c-4.6,1.1-10.2,1.4-14.6,2.8-1.5.5-1.4,2.1-2.1,2.2-5.3.9-25.4-8.4-29.1-13.5-.1-6.2,28.1-15.1,33.3-14.5,1.3.1,2.3,1.5,3.3,1.7,13.7,2.4,28.9,2.5,42.7,1.3,11.6-1,23.4-4.1,35-5,1.1,0,3.7-.7,3.5,1-21.5,5-43.5,8.8-65.5,11-15.5,1.6-29.9,2.4-45.5,1,1.5,2.5,7.6,2.8,10.5,3,20.2,1.4,47.6-2.1,67.9-5.2,13-1.9,25.8-4.5,38.2-8.8,4.2-.1-5.2,3.8-5.6,3.9-30.3,11.7-64.2,16.5-96.5,16.1-2.4,0-5.5-2.2-6.5.9,3.6-.6,7,.9,10.5,1.1,6,.4,15.5-1.3,20.5,1h0Z"/>
      <path class="st2" d="M315.7,149.3c.4,3.1,5,.5,5,3.5,0,4.2-2.5,3.3-5,4.5-20.9,9.7-50.6,19.6-73.5,17-1.5-.2-3.1-.2-3.5-2,20.2-.4,41.3-4.2,60.2-11.3,3.7-1.4,8.9-2.9,11.8-5.7-9.3,1.9-18.4,4.8-27.8,6.7-12.8,2.6-24.5,4.1-37.2,7.3-.5-.8-1.4-.7-2-1-5-2.2-14.5-.6-20.5-1-3.5-.2-6.9-1.6-10.5-1.1,1-3.1,4.1-1,6.5-.9,32.4.4,66.3-4.3,96.5-16.1h0ZM315.2,151.3v1c.6-.3.6-.7,0-1Z"/>
      <path class="st1" d="M528.7,180.3c-25.5,1.2-50.1-6-73.5-15l-13.5-7c15.1,3.5,29.5,8.9,44.8,11.7,10.4,1.9,33.1,2.3,40.6,7.4,1.2.8,2,1.2,1.6,2.9h0Z"/>
      <path class="st2" d="M442.7,174.3c6.6,3.8,13.2,7.5,20,11,1.2.6,2.6,1.3,3.8,1.9,5.2,2.7,15.3,5.9,19.6,9.2,1.1.9,1.7,1.4,1.6,2.9l-34-14c4.6,5.5,13,7.9,18,12.5,1.5,1.4,2.4,2.1,2,4.4-.3,0-.7,0-1,0-5.2-5.8-12.9-8.7-19.3-13.2-3.8-2.7-7.1-5.9-10.7-8.8,2-1.2.4-4.1,0-6h0Z"/>
      <path class="st1" d="M295.7,142.3l-8.6,1.9c-16.5,1-33,2.1-49.4.1l17.6-3.9c12-.7,23.9-2.6,35.9-2.1,1.2,0,3.7-.8,3.5,1l-23,1c0,.6,1.3,2,1.5,2h22.5,0Z"/>
      <path class="st2" d="M454.7,173.3c1.5.3,5.3.7,6,1,6.2,2.6,17,9.9,24,13.5,2.6,1.4,14.4,5.9,15,6.5,2.2,2.2-1.9,1.9-3.1,1.6-9.9-2.5-18.5-9.3-27.2-11.9-1.5-.5-5.4.2-5.8-.6-.2-.5.4-1.9-.2-2.8-1.4-2-10.1-2-10.8-7.2.6.1,1.4-.1,2,0h0Z"/>
      <path class="st1" d="M515.7,88.3c-2.2,2.2-9-2.7-10.9-4.6-2.9-3-5.2-7.2-6.1-11.4,6.5-4,21,12,17,16Z"/>
      <path class="st1" d="M452.7,173.3c.7,5.3,9.4,5.2,10.8,7.2.6.9,0,2.3.2,2.8l-1,2c-6.8-3.5-13.4-7.2-20-11-1.6-.9-3.2-1.1-5-2.5-1.1-.8-9-8.5-8-9.5,6.2,2.8,11.8,8.1,18.3,10.2,2,.6,3.3.4,4.7.8h0Z"/>
      <path class="st1" d="M502.7,167.3c.5.5.7,2.2-1.3,1.8-9.2-1.7-18.4-4-27.7-5.3l-23-7.5,52,11Z"/>
      <path class="st1" d="M487.7,199.3v1c-4.4.5-8.4,1.6-14,2,.3-2.3-.5-3-2-4.4-5-4.7-13.4-7-18-12.5l34,14h0Z"/>
      <path class="st2" d="M425.7,170.3c3.7,4.7,10.9,12.3,15.5,16,6.6,5.3,15,7.7,21.5,13-13.3-4.1-24.2-9.4-33.5-20-1.9-2.2-3.1-5.3-4.5-7l1-2Z"/>
      <path class="st2" d="M413.7,389.3c-.7,0-1.3,0-2,0-.8,0-1.6.2-2-.7l-9-37.3c2.4,2.1,3.9,6.5,5,9.5,3.1,8,6.6,20.3,8,28.5Z"/>
      <path class="st2" d="M353.7,142.3l2,2v4c7.8-4.3,13.8-1.3,22-.5-4.5,2.6-9.8,0-15.4.6-9.6,1.1-5.6,5.6-8.1,12.9-4.7-.1-1.7-15.5-2.5-19,.7,0,1.3,0,2,0h0Z"/>
      <path class="st1" d="M463.7,172.3c.5,2.7-.6,2-3,2-.7-.3-4.5-.7-6-1-6.6-5.9-16.1-8.2-22-15l31,14Z"/>
      <path class="st2" d="M298.7,169.3c.6,0,1.3,0,2,0,0,.9-.7,1.4-1,2-1,0-2,.1-3,0-5-.5-20,6.3-26.8,7.7-2.1.4-4.6,1.1-6.7,1.3-1.1,0-3.7.7-3.5-1,10.6-1,21.7-8,31.7-9.8,2.5-.4,4.9,0,7.3-.2h0Z"/>
      <path class="st2" d="M505.7,182.3c3.6,1.7,6.5,3.1,10.8,3.7s11.9-1.6,12.2,3.2c-9.6,0-19.5-.7-27-7,.8,0,.4-1.7,4,0h0Z"/>
      <path class="st1" d="M238.7,78.3c1.2,1.4-.5,2.5-1.2,3.3-1.3,1.4-10.7,7.8-11.8,6.7-2.9-3.1,11.5-11.7,13-10Z"/>
      <path class="st1" d="M405.7,253.3c2.8,2.5-13.8,9.4-15,1.5-.5-3,6.5-.4,8.5-.4s4.3-1.2,6.5-1.1h0Z"/>
      <path class="st1" d="M338.7,159.3c-2.9,7.6-6.3,15-10.5,22-.3.6-.9,3.9-2.5,2s8.8-19.8,10.4-22.1c.8-1.2,0-2.5,2.6-1.9Z"/>
      <path class="st1" d="M337.7,245.3c-1,6.7-11.6,4.9-13-1l13,1Z"/>
      <path class="st2" d="M300.7,181.3l1,2c-6,3-10.3,2.8-16.5,5,1-2,5.5-5.9,7.5-6,.3,0,.7,0,1,0,2.1-.1,3.4.9,7-1Z"/>
      <path class="st1" d="M354.7,248.3c-1.2,6.1-10.4,5-11-1,3.8.6,7.2,2.4,11,1Z"/>
      <path class="st1" d="M369.7,251.3c-2.7,5.7-8.6,5.2-10-1l10,1Z"/>
      <path class="st2" d="M416.7,186.3c.2.3,1.6.8,1.8,1.6l7.2,13.4c-4.4-3.5-6.9-8.6-10-13l1-2h0Z"/>
      <path class="st1" d="M313.7,238.3c-.6,3.7,5.5,4.5,5.9,5.1,4.2,6.2-10-.1-7.9-5.1.7,0,1.4,0,2,0Z"/>
      <path class="st1" d="M409.7,259.2c-1.8-1.7,6.2-6.6,7-2.5.7,3.3-5.6,3.8-7,2.5Z"/>
      <path class="st1" d="M314.7,246.3c.3,1.7-2.4,1-3.3.8-3.2-.9-3.7-2.4-3.7-5.8l7,5h0Z"/>
      <path class="st2" d="M411.7,190.3c1.1.3,1.5,1.1,2,2l-2,2c-.9-1.4-1.3-2.6-2-4,.6.1,1.5-.1,2,0Z"/>
      <path class="st2" d="M431.7,155.3v2c-1.5.3-2.1-.4-3-1.5l3-.5Z"/>
      <path class="st3" d="M303.7,439.3c.7.4-.6,1.7-2,1-.7-.4.6-1.7,2-1Z"/>
      <path class="st1" d="M416.7,186.3c-3.1-6.1-6.6-15.2-6.5-22,9.3,10.7,10.7,28.2,24.5,34.5-3.5-5.5-9.9-9.4-10.5-16.5,8.2,5.3,14.7,14.9,24.5,17-7.4-7.8-17.4-12.5-24.5-21-1.4-1.7-12.4-18.3-11.5-19,1.2-.9,2.4-.1,3.2,1.3,3,4.7,5.5,7.6,8.7,11.7,1.4,1.7,2.5,4.8,4.5,7,9.3,10.6,20.2,15.9,33.5,20-6.5-5.3-14.9-7.8-21.5-13-4.6-3.7-11.8-11.3-15.5-16-1.7-2.1-2.2-5.8-5-6-.2-1.9,1.9-.7,2.7-.2,4.9,2.9,14.3,12.2,19.3,16.2,3.6,2.9,6.9,6.1,10.7,8.8,6.4,4.5,14.1,7.4,19.3,13.2-5.5.4-12.1,1.8-17.6,1.1-2-.3-1.3-2.2-1.9-2.1-3.5.2-7.4,2.3-14,2-3-.1-5.6,0-8,0s-13-.6-13.9-1c-1.7-.6-1.3-3-2.1-2.9-.9,3.8-5.5,1.5-8.5,2v-16c1.5.4,2.3,3.5,3,5s1.1,2.6,2,4c3.5,5.9,4,2,2-2-.5-.9-.9-1.7-2-2l-4-13c3,2,3.6,6.1,5.5,9,.7,1.1,2.1,1.6,2.4,2,3.1,4.4,5.6,9.5,10,13l-7.2-13.4c-.2-.8-1.7-1.3-1.8-1.6h0Z"/>
      <path class="st1" d="M425.7,161.2c-.2-2,2-1,3,.5l-3-.5Z"/>
      <path class="st4" d="M454.4,80.7c2.1,1.7,5.8,6.4,6.6,8.9,6.8,20.8-21.5,18.4-31.8,7.8-17.1-17.7,7.3-31,25.2-16.6h0ZM435.5,80.5c-11.7,1.8-1.9,13.3,4.5,16s17.4,3.6,14.2-6.2c-2-6.2-12.6-10.7-18.8-9.7h0Z"/>
      <path class="st4" d="M375.5,24.5c10.1-1.5,24.4,1.9,24.3,14.2,0,17-40.2,17.1-40.2,0,0-8.3,8.6-13.2,15.9-14.2h0ZM374.5,30.5c-2,.4-7.1,3.1-8,5-5.8,11.9,31.5,12.1,25.8-.2-2.5-5.4-12.7-5.8-17.8-4.8Z"/>
      <path class="st4" d="M326.5,73.5c24.8-3.6,21.5,20.9,4.3,25.3-27,6.9-29.4-21.7-4.3-25.3ZM326.5,79.5c-12.3,1.9-16.9,14.2-1.4,12.7,12.4-1.2,19.4-15.4,1.4-12.7Z"/>
      <path class="st4" d="M315.4,42.5c6.1,6.1-1.6,15.3-7.2,18.8-7.9,4.9-26.9,8.2-23.1-6.1,2.4-9,23-19.9,30.2-12.7h0ZM291.8,58.2c2.8,3.9,20.5-4.3,18.9-10.4-1.7-6.5-22.8,4.9-18.9,10.4Z"/>
      <path class="st4" d="M430,33.5c.7-.7,4.2-2,5.3-2.2,9.6-1.4,20.7,3.7,23,13.9,4,17.7-30.8,10-29.6-7.4,0-1.3.4-3.3,1.3-4.2h0ZM451.7,48.3c3.7-9.3-20.3-16.9-16.5-7.1,2.2,5.9,10.8,8.1,16.5,7.1Z"/>
      <path class="st4" d="M504.5,115.5c12.7-1.2,25.7,20.3,14,25-15.9,6.4-31.2-23.3-14-25h0ZM504.4,121.3c-5.5,1.6,5.4,16.7,11.4,12.5,4.3-3-5.5-14.2-11.4-12.5h0Z"/>
      <path class="st4" d="M253.5,94.5c17.6-2.5,13.8,14.8,2.2,20.2-23.9,11.2-23.2-17.3-2.2-20.2ZM253.5,99.5c-7,1.4-15.4,13.8-2.7,10.3,6.4-1.8,14.3-12.6,2.7-10.3Z"/>
      <path class="st2" d="M537.7,142.3c1.3,1.1,5.6,19.9,5.8,22.8,0,1.8.7,2.9-1.3,4.2-2.5.5-1.4-1.9-1.5-3.5-.5-8.9-4.3-14.4-6-23,0-.9,2.8-.6,3-.5h0Z"/>
      <path class="st2" d="M511.7,193.2l-17.8-3.7-8.2-4.3c5.4.4,11.5,2.1,16.8,3.7,2.9.9,7.5,1.7,9.2,4.2Z"/>
      <path class="st2" d="M339.7,28.3c.6.6-.1,3.5-1.6,3.8l-9.3,7.2c-3.4-4.9,10.1-12,11-11Z"/>
      <path class="st2" d="M482.1,80.9c9.7,9.2-5.5,7.7-3.4-2.6,2.3-.5,2.2,1.6,3.4,2.6Z"/>
      <path class="st2" d="M494.7,102.3c-1.5,1.8-7.1-9.5-7-11,1.7-1.8,8.5,8.5,7,11Z"/>
      <path class="st2" d="M306.7,114.3c2.8,2.8-5.5,5.6-7,4-2.9-2.9,5.9-5.1,7-4Z"/>
      <path class="st2" d="M218.7,120.3c.6.5-1.2,4-2,4.5-6.2,3.7-4.9-5.9,2-4.5Z"/>
      <path class="st2" d="M275.7,76.3c.4,1.8-.9,2.5-2.1,3.4-6.5,5.2-4.6-4.8,2.1-3.4Z"/>
      <rect class="st2" x="469.7" y="125.3" width="3" height="6"/>
      <path class="st2" d="M363.7,65.3c2.3,2.3-4.1,6.3-5,2.5-.5-2.4,4.3-3.1,5-2.5Z"/>
      <path class="st2" d="M363.4,441.9l11.3-20.7c.9,5.9-2.3,10.7-4.5,16-1.7,4.1-.2,6.4-5.9,9.1s-6-2.4-.9-4.4h0Z"/>
      <path class="st2" d="M394.7,309.3c.8,10.2,4.6,20.9,5.6,31,.1,1.5.9,3.1-1.1,4s-2-3.5-2.3-4.6c-1.6-7.1-3.7-17.7-4.1-24.9-.1-2-1.1-6.4,2-5.5h0Z"/>
      <path class="st2" d="M329.7,430.3c.8.8,2.8,7.5,6.1,8.5l9,3.5c-7.6,3.7-17.1-2.4-17-10.5,0-1.6.9-2.7,2-1.5h0Z"/>
      <path class="st2" d="M330.7,257.3v18h-3c.4-6.1.4-11.9,0-18h3Z"/>
      <path class="st2" d="M327.7,331.3c.5.5-2.5,15-5,12-1.1-2.1,1.4-15.6,5-12Z"/>
      <path class="st2" d="M402.7,383.8c0-.3-1.5-1.1-1-1.5,1.5-.9,3,1.4,3,2.5v14.5h-2c-.5-4.9.6-10.8,0-15.5Z"/>
      <path class="st2" d="M380.7,364.2c-1.6-2.1,4.4-4.8,6-1.5.5,3.4-5.4,2.3-6,1.5Z"/>
      <path class="st2" d="M375.7,264.3c0,1.7,0,2.9-1.5,4-2.8-.2-5.3-4.6-1.2-4.8.7,0,2,.9,2.7.8h0Z"/>
      <path class="st2" d="M390.7,197.3c1.2-1.6,1.8,0,2,1.5,1.1,9.2,1,18.9,3,28,0,1.3-5,.4-5-1v-28.5h0Z"/>
      <path class="st2" d="M345.7,200.3c0,3.7-2.2,13.3-4,16.3-.8,1.4-1.8.5-3,.7-.6-.5,3.8-13.2,4.5-15,.6-1.6-.1-2.5,2.4-2h0Z"/>
      <path class="st4" d="M299.7,171.3c-1.9,3.5-4.1,6.4-8.5,7-5.5.8,5-6,5.5-7,1,.1,2,0,3,0Z"/>
      <path class="st4" d="M278.7,181.3v2h-4c-1.2-.6,3.4-2.5,4-2Z"/>
      <path class="st4" d="M286.7,178.3c1.1,1.1-.9,3.1-2,2s.9-3.1,2-2Z"/>
      <path class="st4" d="M413.7,192.3c2,4,1.5,7.9-2,2l2-2Z"/>
      <path class="st4" d="M315.2,151.3c.6.3.6.7,0,1v-1Z"/>
      <path class="st3" d="M435.5,80.5c6.2-1,16.8,3.6,18.8,9.7,3.2,9.9-8.1,8.8-14.2,6.2s-16.3-14.1-4.5-16h0Z"/>
      <path class="st3" d="M374.5,30.5c5.1-1,15.2-.6,17.8,4.8,5.8,12.4-31.5,12.1-25.8.2.9-1.9,6-4.6,8-5Z"/>
      <path class="st3" d="M326.5,79.5c18.1-2.8,11,11.5-1.4,12.7-15.5,1.5-10.9-10.8,1.4-12.7Z"/>
      <path class="st1" d="M291.8,58.2c-3.8-5.5,17.2-16.9,18.9-10.4,1.5,6-16.1,14.3-18.9,10.4Z"/>
      <path class="st1" d="M451.7,48.3c-5.7,1-14.3-1.2-16.5-7.1-3.8-9.9,20.2-2.3,16.5,7.1Z"/>
      <path class="st1" d="M504.4,121.3c5.9-1.7,15.8,9.5,11.4,12.5-6.1,4.2-16.9-10.9-11.4-12.5h0Z"/>
      <path class="st1" d="M253.5,99.5c11.6-2.3,3.7,8.5-2.7,10.3-12.7,3.5-4.3-8.9,2.7-10.3Z"/>
      <path class="st4" d="M389.5,93.2c23.8-3.4,20.5,19.1,4.3,23.3-27,6.9-29.4-19.7-4.3-23.3ZM389.5,99.2c-12.3,1.9-16.9,14.2-1.4,12.7,12.4-1.2,19.4-15.4,1.4-12.7Z"/>
      <path class="st3" d="M389.5,99.2c18.1-2.8,11,11.5-1.4,12.7-16.5,1.6-11.9-10.6,1.4-12.7Z"/>
    </g>
  </g>
</svg>