<svg width="21" height="21" viewBox="0 0 21 21" fill="none" xmlns="http://www.w3.org/2000/svg">
<path d="M3 3.68182C3 3.50099 3.06585 3.32757 3.18306 3.1997C3.30027 3.07183 3.45924 3 3.625 3H17.375C17.5408 3 17.6997 3.07183 17.8169 3.1997C17.9342 3.32757 18 3.50099 18 3.68182C18 3.86265 17.9342 4.03607 17.8169 4.16394C17.6997 4.2918 17.5408 4.36364 17.375 4.36364H3.625C3.45924 4.36364 3.30027 4.2918 3.18306 4.16394C3.06585 4.03607 3 3.86265 3 3.68182ZM3 10.5C3 10.3192 3.06585 10.1457 3.18306 10.0179C3.30027 9.89002 3.45924 9.81818 3.625 9.81818H17.375C17.5408 9.81818 17.6997 9.89002 17.8169 10.0179C17.9342 10.1457 18 10.3192 18 10.5C18 10.6808 17.9342 10.8543 17.8169 10.9821C17.6997 11.11 17.5408 11.1818 17.375 11.1818H3.625C3.45924 11.1818 3.30027 11.11 3.18306 10.9821C3.06585 10.8543 3 10.6808 3 10.5ZM3.625 16.6364C3.45924 16.6364 3.30027 16.7082 3.18306 16.8361C3.06585 16.9639 3 17.1374 3 17.3182C3 17.499 3.06585 17.6724 3.18306 17.8003C3.30027 17.9282 3.45924 18 3.625 18H17.375C17.5408 18 17.6997 17.9282 17.8169 17.8003C17.9342 17.6724 18 17.499 18 17.3182C18 17.1374 17.9342 16.9639 17.8169 16.8361C17.6997 16.7082 17.5408 16.6364 17.375 16.6364H3.625Z" fill="#AA0000"/>
</svg>
